<?xml version="1.0" encoding="utf-8" standalone="no"?>
<!DOCTYPE svg PUBLIC "-//W3C//DTD SVG 1.1//EN"
  "http://www.w3.org/Graphics/SVG/1.1/DTD/svg11.dtd">
<!-- Created with matplotlib (https://matplotlib.org/) -->
<svg height="345.6pt" version="1.1" viewBox="0 0 460.8 345.6" width="460.8pt" xmlns="http://www.w3.org/2000/svg" xmlns:xlink="http://www.w3.org/1999/xlink">
 <metadata>
  <rdf:RDF xmlns:cc="http://creativecommons.org/ns#" xmlns:dc="http://purl.org/dc/elements/1.1/" xmlns:rdf="http://www.w3.org/1999/02/22-rdf-syntax-ns#">
   <cc:Work>
    <dc:type rdf:resource="http://purl.org/dc/dcmitype/StillImage"/>
    <dc:date>2021-05-19T23:02:38.362326</dc:date>
    <dc:format>image/svg+xml</dc:format>
    <dc:creator>
     <cc:Agent>
      <dc:title>Matplotlib v3.3.4, https://matplotlib.org/</dc:title>
     </cc:Agent>
    </dc:creator>
   </cc:Work>
  </rdf:RDF>
 </metadata>
 <defs>
  <style type="text/css">*{stroke-linecap:butt;stroke-linejoin:round;}</style>
 </defs>
 <g id="figure_1">
  <g id="patch_1">
   <path d="M 0 345.6 
L 460.8 345.6 
L 460.8 0 
L 0 0 
z
" style="fill:#ffffff;"/>
  </g>
  <g id="axes_1">
   <g id="patch_2">
    <path d="M 57.6 307.584 
L 414.72 307.584 
L 414.72 41.472 
L 57.6 41.472 
z
" style="fill:#ffffff;"/>
   </g>
   <g id="matplotlib.axis_1">
    <g id="xtick_1">
     <g id="line2d_1">
      <path clip-path="url(#p2e8038e057)" d="M 73.832727 307.584 
L 73.832727 41.472 
" style="fill:none;stroke:#b0b0b0;stroke-linecap:square;stroke-width:0.8;"/>
     </g>
     <g id="line2d_2">
      <defs>
       <path d="M 0 0 
L 0 3.5 
" id="m8111dfae20" style="stroke:#000000;stroke-width:0.8;"/>
      </defs>
      <g>
       <use style="stroke:#000000;stroke-width:0.8;" x="73.832727" xlink:href="#m8111dfae20" y="307.584"/>
      </g>
     </g>
     <g id="text_1">
      <!-- 0 -->
      <g transform="translate(70.651477 322.182437)scale(0.1 -0.1)">
       <defs>
        <path d="M 31.78125 66.40625 
Q 24.171875 66.40625 20.328125 58.90625 
Q 16.5 51.421875 16.5 36.375 
Q 16.5 21.390625 20.328125 13.890625 
Q 24.171875 6.390625 31.78125 6.390625 
Q 39.453125 6.390625 43.28125 13.890625 
Q 47.125 21.390625 47.125 36.375 
Q 47.125 51.421875 43.28125 58.90625 
Q 39.453125 66.40625 31.78125 66.40625 
z
M 31.78125 74.21875 
Q 44.046875 74.21875 50.515625 64.515625 
Q 56.984375 54.828125 56.984375 36.375 
Q 56.984375 17.96875 50.515625 8.265625 
Q 44.046875 -1.421875 31.78125 -1.421875 
Q 19.53125 -1.421875 13.0625 8.265625 
Q 6.59375 17.96875 6.59375 36.375 
Q 6.59375 54.828125 13.0625 64.515625 
Q 19.53125 74.21875 31.78125 74.21875 
z
" id="DejaVuSans-48"/>
       </defs>
       <use xlink:href="#DejaVuSans-48"/>
      </g>
     </g>
    </g>
    <g id="xtick_2">
     <g id="line2d_3">
      <path clip-path="url(#p2e8038e057)" d="M 139.552271 307.584 
L 139.552271 41.472 
" style="fill:none;stroke:#b0b0b0;stroke-linecap:square;stroke-width:0.8;"/>
     </g>
     <g id="line2d_4">
      <g>
       <use style="stroke:#000000;stroke-width:0.8;" x="139.552271" xlink:href="#m8111dfae20" y="307.584"/>
      </g>
     </g>
     <g id="text_2">
      <!-- 50 -->
      <g transform="translate(133.189771 322.182437)scale(0.1 -0.1)">
       <defs>
        <path d="M 10.796875 72.90625 
L 49.515625 72.90625 
L 49.515625 64.59375 
L 19.828125 64.59375 
L 19.828125 46.734375 
Q 21.96875 47.46875 24.109375 47.828125 
Q 26.265625 48.1875 28.421875 48.1875 
Q 40.625 48.1875 47.75 41.5 
Q 54.890625 34.8125 54.890625 23.390625 
Q 54.890625 11.625 47.5625 5.09375 
Q 40.234375 -1.421875 26.90625 -1.421875 
Q 22.3125 -1.421875 17.546875 -0.640625 
Q 12.796875 0.140625 7.71875 1.703125 
L 7.71875 11.625 
Q 12.109375 9.234375 16.796875 8.0625 
Q 21.484375 6.890625 26.703125 6.890625 
Q 35.15625 6.890625 40.078125 11.328125 
Q 45.015625 15.765625 45.015625 23.390625 
Q 45.015625 31 40.078125 35.4375 
Q 35.15625 39.890625 26.703125 39.890625 
Q 22.75 39.890625 18.8125 39.015625 
Q 14.890625 38.140625 10.796875 36.28125 
z
" id="DejaVuSans-53"/>
       </defs>
       <use xlink:href="#DejaVuSans-53"/>
       <use x="63.623047" xlink:href="#DejaVuSans-48"/>
      </g>
     </g>
    </g>
    <g id="xtick_3">
     <g id="line2d_5">
      <path clip-path="url(#p2e8038e057)" d="M 205.271815 307.584 
L 205.271815 41.472 
" style="fill:none;stroke:#b0b0b0;stroke-linecap:square;stroke-width:0.8;"/>
     </g>
     <g id="line2d_6">
      <g>
       <use style="stroke:#000000;stroke-width:0.8;" x="205.271815" xlink:href="#m8111dfae20" y="307.584"/>
      </g>
     </g>
     <g id="text_3">
      <!-- 100 -->
      <g transform="translate(195.728065 322.182437)scale(0.1 -0.1)">
       <defs>
        <path d="M 12.40625 8.296875 
L 28.515625 8.296875 
L 28.515625 63.921875 
L 10.984375 60.40625 
L 10.984375 69.390625 
L 28.421875 72.90625 
L 38.28125 72.90625 
L 38.28125 8.296875 
L 54.390625 8.296875 
L 54.390625 0 
L 12.40625 0 
z
" id="DejaVuSans-49"/>
       </defs>
       <use xlink:href="#DejaVuSans-49"/>
       <use x="63.623047" xlink:href="#DejaVuSans-48"/>
       <use x="127.246094" xlink:href="#DejaVuSans-48"/>
      </g>
     </g>
    </g>
    <g id="xtick_4">
     <g id="line2d_7">
      <path clip-path="url(#p2e8038e057)" d="M 270.991358 307.584 
L 270.991358 41.472 
" style="fill:none;stroke:#b0b0b0;stroke-linecap:square;stroke-width:0.8;"/>
     </g>
     <g id="line2d_8">
      <g>
       <use style="stroke:#000000;stroke-width:0.8;" x="270.991358" xlink:href="#m8111dfae20" y="307.584"/>
      </g>
     </g>
     <g id="text_4">
      <!-- 150 -->
      <g transform="translate(261.447608 322.182437)scale(0.1 -0.1)">
       <use xlink:href="#DejaVuSans-49"/>
       <use x="63.623047" xlink:href="#DejaVuSans-53"/>
       <use x="127.246094" xlink:href="#DejaVuSans-48"/>
      </g>
     </g>
    </g>
    <g id="xtick_5">
     <g id="line2d_9">
      <path clip-path="url(#p2e8038e057)" d="M 336.710902 307.584 
L 336.710902 41.472 
" style="fill:none;stroke:#b0b0b0;stroke-linecap:square;stroke-width:0.8;"/>
     </g>
     <g id="line2d_10">
      <g>
       <use style="stroke:#000000;stroke-width:0.8;" x="336.710902" xlink:href="#m8111dfae20" y="307.584"/>
      </g>
     </g>
     <g id="text_5">
      <!-- 200 -->
      <g transform="translate(327.167152 322.182437)scale(0.1 -0.1)">
       <defs>
        <path d="M 19.1875 8.296875 
L 53.609375 8.296875 
L 53.609375 0 
L 7.328125 0 
L 7.328125 8.296875 
Q 12.9375 14.109375 22.625 23.890625 
Q 32.328125 33.6875 34.8125 36.53125 
Q 39.546875 41.84375 41.421875 45.53125 
Q 43.3125 49.21875 43.3125 52.78125 
Q 43.3125 58.59375 39.234375 62.25 
Q 35.15625 65.921875 28.609375 65.921875 
Q 23.96875 65.921875 18.8125 64.3125 
Q 13.671875 62.703125 7.8125 59.421875 
L 7.8125 69.390625 
Q 13.765625 71.78125 18.9375 73 
Q 24.125 74.21875 28.421875 74.21875 
Q 39.75 74.21875 46.484375 68.546875 
Q 53.21875 62.890625 53.21875 53.421875 
Q 53.21875 48.921875 51.53125 44.890625 
Q 49.859375 40.875 45.40625 35.40625 
Q 44.1875 33.984375 37.640625 27.21875 
Q 31.109375 20.453125 19.1875 8.296875 
z
" id="DejaVuSans-50"/>
       </defs>
       <use xlink:href="#DejaVuSans-50"/>
       <use x="63.623047" xlink:href="#DejaVuSans-48"/>
       <use x="127.246094" xlink:href="#DejaVuSans-48"/>
      </g>
     </g>
    </g>
    <g id="xtick_6">
     <g id="line2d_11">
      <path clip-path="url(#p2e8038e057)" d="M 402.430445 307.584 
L 402.430445 41.472 
" style="fill:none;stroke:#b0b0b0;stroke-linecap:square;stroke-width:0.8;"/>
     </g>
     <g id="line2d_12">
      <g>
       <use style="stroke:#000000;stroke-width:0.8;" x="402.430445" xlink:href="#m8111dfae20" y="307.584"/>
      </g>
     </g>
     <g id="text_6">
      <!-- 250 -->
      <g transform="translate(392.886695 322.182437)scale(0.1 -0.1)">
       <use xlink:href="#DejaVuSans-50"/>
       <use x="63.623047" xlink:href="#DejaVuSans-53"/>
       <use x="127.246094" xlink:href="#DejaVuSans-48"/>
      </g>
     </g>
    </g>
    <g id="text_7">
     <!-- Generations -->
     <g transform="translate(205.662344 335.860562)scale(0.1 -0.1)">
      <defs>
       <path d="M 59.515625 10.40625 
L 59.515625 29.984375 
L 43.40625 29.984375 
L 43.40625 38.09375 
L 69.28125 38.09375 
L 69.28125 6.78125 
Q 63.578125 2.734375 56.6875 0.65625 
Q 49.8125 -1.421875 42 -1.421875 
Q 24.90625 -1.421875 15.25 8.5625 
Q 5.609375 18.5625 5.609375 36.375 
Q 5.609375 54.25 15.25 64.234375 
Q 24.90625 74.21875 42 74.21875 
Q 49.125 74.21875 55.546875 72.453125 
Q 61.96875 70.703125 67.390625 67.28125 
L 67.390625 56.78125 
Q 61.921875 61.421875 55.765625 63.765625 
Q 49.609375 66.109375 42.828125 66.109375 
Q 29.4375 66.109375 22.71875 58.640625 
Q 16.015625 51.171875 16.015625 36.375 
Q 16.015625 21.625 22.71875 14.15625 
Q 29.4375 6.6875 42.828125 6.6875 
Q 48.046875 6.6875 52.140625 7.59375 
Q 56.25 8.5 59.515625 10.40625 
z
" id="DejaVuSans-71"/>
       <path d="M 56.203125 29.59375 
L 56.203125 25.203125 
L 14.890625 25.203125 
Q 15.484375 15.921875 20.484375 11.0625 
Q 25.484375 6.203125 34.421875 6.203125 
Q 39.59375 6.203125 44.453125 7.46875 
Q 49.3125 8.734375 54.109375 11.28125 
L 54.109375 2.78125 
Q 49.265625 0.734375 44.1875 -0.34375 
Q 39.109375 -1.421875 33.890625 -1.421875 
Q 20.796875 -1.421875 13.15625 6.1875 
Q 5.515625 13.8125 5.515625 26.8125 
Q 5.515625 40.234375 12.765625 48.109375 
Q 20.015625 56 32.328125 56 
Q 43.359375 56 49.78125 48.890625 
Q 56.203125 41.796875 56.203125 29.59375 
z
M 47.21875 32.234375 
Q 47.125 39.59375 43.09375 43.984375 
Q 39.0625 48.390625 32.421875 48.390625 
Q 24.90625 48.390625 20.390625 44.140625 
Q 15.875 39.890625 15.1875 32.171875 
z
" id="DejaVuSans-101"/>
       <path d="M 54.890625 33.015625 
L 54.890625 0 
L 45.90625 0 
L 45.90625 32.71875 
Q 45.90625 40.484375 42.875 44.328125 
Q 39.84375 48.1875 33.796875 48.1875 
Q 26.515625 48.1875 22.3125 43.546875 
Q 18.109375 38.921875 18.109375 30.90625 
L 18.109375 0 
L 9.078125 0 
L 9.078125 54.6875 
L 18.109375 54.6875 
L 18.109375 46.1875 
Q 21.34375 51.125 25.703125 53.5625 
Q 30.078125 56 35.796875 56 
Q 45.21875 56 50.046875 50.171875 
Q 54.890625 44.34375 54.890625 33.015625 
z
" id="DejaVuSans-110"/>
       <path d="M 41.109375 46.296875 
Q 39.59375 47.171875 37.8125 47.578125 
Q 36.03125 48 33.890625 48 
Q 26.265625 48 22.1875 43.046875 
Q 18.109375 38.09375 18.109375 28.8125 
L 18.109375 0 
L 9.078125 0 
L 9.078125 54.6875 
L 18.109375 54.6875 
L 18.109375 46.1875 
Q 20.953125 51.171875 25.484375 53.578125 
Q 30.03125 56 36.53125 56 
Q 37.453125 56 38.578125 55.875 
Q 39.703125 55.765625 41.0625 55.515625 
z
" id="DejaVuSans-114"/>
       <path d="M 34.28125 27.484375 
Q 23.390625 27.484375 19.1875 25 
Q 14.984375 22.515625 14.984375 16.5 
Q 14.984375 11.71875 18.140625 8.90625 
Q 21.296875 6.109375 26.703125 6.109375 
Q 34.1875 6.109375 38.703125 11.40625 
Q 43.21875 16.703125 43.21875 25.484375 
L 43.21875 27.484375 
z
M 52.203125 31.203125 
L 52.203125 0 
L 43.21875 0 
L 43.21875 8.296875 
Q 40.140625 3.328125 35.546875 0.953125 
Q 30.953125 -1.421875 24.3125 -1.421875 
Q 15.921875 -1.421875 10.953125 3.296875 
Q 6 8.015625 6 15.921875 
Q 6 25.140625 12.171875 29.828125 
Q 18.359375 34.515625 30.609375 34.515625 
L 43.21875 34.515625 
L 43.21875 35.40625 
Q 43.21875 41.609375 39.140625 45 
Q 35.0625 48.390625 27.6875 48.390625 
Q 23 48.390625 18.546875 47.265625 
Q 14.109375 46.140625 10.015625 43.890625 
L 10.015625 52.203125 
Q 14.9375 54.109375 19.578125 55.046875 
Q 24.21875 56 28.609375 56 
Q 40.484375 56 46.34375 49.84375 
Q 52.203125 43.703125 52.203125 31.203125 
z
" id="DejaVuSans-97"/>
       <path d="M 18.3125 70.21875 
L 18.3125 54.6875 
L 36.8125 54.6875 
L 36.8125 47.703125 
L 18.3125 47.703125 
L 18.3125 18.015625 
Q 18.3125 11.328125 20.140625 9.421875 
Q 21.96875 7.515625 27.59375 7.515625 
L 36.8125 7.515625 
L 36.8125 0 
L 27.59375 0 
Q 17.1875 0 13.234375 3.875 
Q 9.28125 7.765625 9.28125 18.015625 
L 9.28125 47.703125 
L 2.6875 47.703125 
L 2.6875 54.6875 
L 9.28125 54.6875 
L 9.28125 70.21875 
z
" id="DejaVuSans-116"/>
       <path d="M 9.421875 54.6875 
L 18.40625 54.6875 
L 18.40625 0 
L 9.421875 0 
z
M 9.421875 75.984375 
L 18.40625 75.984375 
L 18.40625 64.59375 
L 9.421875 64.59375 
z
" id="DejaVuSans-105"/>
       <path d="M 30.609375 48.390625 
Q 23.390625 48.390625 19.1875 42.75 
Q 14.984375 37.109375 14.984375 27.296875 
Q 14.984375 17.484375 19.15625 11.84375 
Q 23.34375 6.203125 30.609375 6.203125 
Q 37.796875 6.203125 41.984375 11.859375 
Q 46.1875 17.53125 46.1875 27.296875 
Q 46.1875 37.015625 41.984375 42.703125 
Q 37.796875 48.390625 30.609375 48.390625 
z
M 30.609375 56 
Q 42.328125 56 49.015625 48.375 
Q 55.71875 40.765625 55.71875 27.296875 
Q 55.71875 13.875 49.015625 6.21875 
Q 42.328125 -1.421875 30.609375 -1.421875 
Q 18.84375 -1.421875 12.171875 6.21875 
Q 5.515625 13.875 5.515625 27.296875 
Q 5.515625 40.765625 12.171875 48.375 
Q 18.84375 56 30.609375 56 
z
" id="DejaVuSans-111"/>
       <path d="M 44.28125 53.078125 
L 44.28125 44.578125 
Q 40.484375 46.53125 36.375 47.5 
Q 32.28125 48.484375 27.875 48.484375 
Q 21.1875 48.484375 17.84375 46.4375 
Q 14.5 44.390625 14.5 40.28125 
Q 14.5 37.15625 16.890625 35.375 
Q 19.28125 33.59375 26.515625 31.984375 
L 29.59375 31.296875 
Q 39.15625 29.25 43.1875 25.515625 
Q 47.21875 21.78125 47.21875 15.09375 
Q 47.21875 7.46875 41.1875 3.015625 
Q 35.15625 -1.421875 24.609375 -1.421875 
Q 20.21875 -1.421875 15.453125 -0.5625 
Q 10.6875 0.296875 5.421875 2 
L 5.421875 11.28125 
Q 10.40625 8.6875 15.234375 7.390625 
Q 20.0625 6.109375 24.8125 6.109375 
Q 31.15625 6.109375 34.5625 8.28125 
Q 37.984375 10.453125 37.984375 14.40625 
Q 37.984375 18.0625 35.515625 20.015625 
Q 33.0625 21.96875 24.703125 23.78125 
L 21.578125 24.515625 
Q 13.234375 26.265625 9.515625 29.90625 
Q 5.8125 33.546875 5.8125 39.890625 
Q 5.8125 47.609375 11.28125 51.796875 
Q 16.75 56 26.8125 56 
Q 31.78125 56 36.171875 55.265625 
Q 40.578125 54.546875 44.28125 53.078125 
z
" id="DejaVuSans-115"/>
      </defs>
      <use xlink:href="#DejaVuSans-71"/>
      <use x="77.490234" xlink:href="#DejaVuSans-101"/>
      <use x="139.013672" xlink:href="#DejaVuSans-110"/>
      <use x="202.392578" xlink:href="#DejaVuSans-101"/>
      <use x="263.916016" xlink:href="#DejaVuSans-114"/>
      <use x="305.029297" xlink:href="#DejaVuSans-97"/>
      <use x="366.308594" xlink:href="#DejaVuSans-116"/>
      <use x="405.517578" xlink:href="#DejaVuSans-105"/>
      <use x="433.300781" xlink:href="#DejaVuSans-111"/>
      <use x="494.482422" xlink:href="#DejaVuSans-110"/>
      <use x="557.861328" xlink:href="#DejaVuSans-115"/>
     </g>
    </g>
   </g>
   <g id="matplotlib.axis_2">
    <g id="ytick_1">
     <g id="line2d_13">
      <path clip-path="url(#p2e8038e057)" d="M 57.6 276.620943 
L 414.72 276.620943 
" style="fill:none;stroke:#b0b0b0;stroke-linecap:square;stroke-width:0.8;"/>
     </g>
     <g id="line2d_14">
      <defs>
       <path d="M 0 0 
L -3.5 0 
" id="ma9b8941336" style="stroke:#000000;stroke-width:0.8;"/>
      </defs>
      <g>
       <use style="stroke:#000000;stroke-width:0.8;" x="57.6" xlink:href="#ma9b8941336" y="276.620943"/>
      </g>
     </g>
     <g id="text_8">
      <!-- −400 -->
      <g transform="translate(23.132812 280.420162)scale(0.1 -0.1)">
       <defs>
        <path d="M 10.59375 35.5 
L 73.1875 35.5 
L 73.1875 27.203125 
L 10.59375 27.203125 
z
" id="DejaVuSans-8722"/>
        <path d="M 37.796875 64.3125 
L 12.890625 25.390625 
L 37.796875 25.390625 
z
M 35.203125 72.90625 
L 47.609375 72.90625 
L 47.609375 25.390625 
L 58.015625 25.390625 
L 58.015625 17.1875 
L 47.609375 17.1875 
L 47.609375 0 
L 37.796875 0 
L 37.796875 17.1875 
L 4.890625 17.1875 
L 4.890625 26.703125 
z
" id="DejaVuSans-52"/>
       </defs>
       <use xlink:href="#DejaVuSans-8722"/>
       <use x="83.789062" xlink:href="#DejaVuSans-52"/>
       <use x="147.412109" xlink:href="#DejaVuSans-48"/>
       <use x="211.035156" xlink:href="#DejaVuSans-48"/>
      </g>
     </g>
    </g>
    <g id="ytick_2">
     <g id="line2d_15">
      <path clip-path="url(#p2e8038e057)" d="M 57.6 240.989836 
L 414.72 240.989836 
" style="fill:none;stroke:#b0b0b0;stroke-linecap:square;stroke-width:0.8;"/>
     </g>
     <g id="line2d_16">
      <g>
       <use style="stroke:#000000;stroke-width:0.8;" x="57.6" xlink:href="#ma9b8941336" y="240.989836"/>
      </g>
     </g>
     <g id="text_9">
      <!-- −200 -->
      <g transform="translate(23.132812 244.789055)scale(0.1 -0.1)">
       <use xlink:href="#DejaVuSans-8722"/>
       <use x="83.789062" xlink:href="#DejaVuSans-50"/>
       <use x="147.412109" xlink:href="#DejaVuSans-48"/>
       <use x="211.035156" xlink:href="#DejaVuSans-48"/>
      </g>
     </g>
    </g>
    <g id="ytick_3">
     <g id="line2d_17">
      <path clip-path="url(#p2e8038e057)" d="M 57.6 205.358728 
L 414.72 205.358728 
" style="fill:none;stroke:#b0b0b0;stroke-linecap:square;stroke-width:0.8;"/>
     </g>
     <g id="line2d_18">
      <g>
       <use style="stroke:#000000;stroke-width:0.8;" x="57.6" xlink:href="#ma9b8941336" y="205.358728"/>
      </g>
     </g>
     <g id="text_10">
      <!-- 0 -->
      <g transform="translate(44.2375 209.157947)scale(0.1 -0.1)">
       <use xlink:href="#DejaVuSans-48"/>
      </g>
     </g>
    </g>
    <g id="ytick_4">
     <g id="line2d_19">
      <path clip-path="url(#p2e8038e057)" d="M 57.6 169.727621 
L 414.72 169.727621 
" style="fill:none;stroke:#b0b0b0;stroke-linecap:square;stroke-width:0.8;"/>
     </g>
     <g id="line2d_20">
      <g>
       <use style="stroke:#000000;stroke-width:0.8;" x="57.6" xlink:href="#ma9b8941336" y="169.727621"/>
      </g>
     </g>
     <g id="text_11">
      <!-- 200 -->
      <g transform="translate(31.5125 173.52684)scale(0.1 -0.1)">
       <use xlink:href="#DejaVuSans-50"/>
       <use x="63.623047" xlink:href="#DejaVuSans-48"/>
       <use x="127.246094" xlink:href="#DejaVuSans-48"/>
      </g>
     </g>
    </g>
    <g id="ytick_5">
     <g id="line2d_21">
      <path clip-path="url(#p2e8038e057)" d="M 57.6 134.096514 
L 414.72 134.096514 
" style="fill:none;stroke:#b0b0b0;stroke-linecap:square;stroke-width:0.8;"/>
     </g>
     <g id="line2d_22">
      <g>
       <use style="stroke:#000000;stroke-width:0.8;" x="57.6" xlink:href="#ma9b8941336" y="134.096514"/>
      </g>
     </g>
     <g id="text_12">
      <!-- 400 -->
      <g transform="translate(31.5125 137.895732)scale(0.1 -0.1)">
       <use xlink:href="#DejaVuSans-52"/>
       <use x="63.623047" xlink:href="#DejaVuSans-48"/>
       <use x="127.246094" xlink:href="#DejaVuSans-48"/>
      </g>
     </g>
    </g>
    <g id="ytick_6">
     <g id="line2d_23">
      <path clip-path="url(#p2e8038e057)" d="M 57.6 98.465406 
L 414.72 98.465406 
" style="fill:none;stroke:#b0b0b0;stroke-linecap:square;stroke-width:0.8;"/>
     </g>
     <g id="line2d_24">
      <g>
       <use style="stroke:#000000;stroke-width:0.8;" x="57.6" xlink:href="#ma9b8941336" y="98.465406"/>
      </g>
     </g>
     <g id="text_13">
      <!-- 600 -->
      <g transform="translate(31.5125 102.264625)scale(0.1 -0.1)">
       <defs>
        <path d="M 33.015625 40.375 
Q 26.375 40.375 22.484375 35.828125 
Q 18.609375 31.296875 18.609375 23.390625 
Q 18.609375 15.53125 22.484375 10.953125 
Q 26.375 6.390625 33.015625 6.390625 
Q 39.65625 6.390625 43.53125 10.953125 
Q 47.40625 15.53125 47.40625 23.390625 
Q 47.40625 31.296875 43.53125 35.828125 
Q 39.65625 40.375 33.015625 40.375 
z
M 52.59375 71.296875 
L 52.59375 62.3125 
Q 48.875 64.0625 45.09375 64.984375 
Q 41.3125 65.921875 37.59375 65.921875 
Q 27.828125 65.921875 22.671875 59.328125 
Q 17.53125 52.734375 16.796875 39.40625 
Q 19.671875 43.65625 24.015625 45.921875 
Q 28.375 48.1875 33.59375 48.1875 
Q 44.578125 48.1875 50.953125 41.515625 
Q 57.328125 34.859375 57.328125 23.390625 
Q 57.328125 12.15625 50.6875 5.359375 
Q 44.046875 -1.421875 33.015625 -1.421875 
Q 20.359375 -1.421875 13.671875 8.265625 
Q 6.984375 17.96875 6.984375 36.375 
Q 6.984375 53.65625 15.1875 63.9375 
Q 23.390625 74.21875 37.203125 74.21875 
Q 40.921875 74.21875 44.703125 73.484375 
Q 48.484375 72.75 52.59375 71.296875 
z
" id="DejaVuSans-54"/>
       </defs>
       <use xlink:href="#DejaVuSans-54"/>
       <use x="63.623047" xlink:href="#DejaVuSans-48"/>
       <use x="127.246094" xlink:href="#DejaVuSans-48"/>
      </g>
     </g>
    </g>
    <g id="ytick_7">
     <g id="line2d_25">
      <path clip-path="url(#p2e8038e057)" d="M 57.6 62.834299 
L 414.72 62.834299 
" style="fill:none;stroke:#b0b0b0;stroke-linecap:square;stroke-width:0.8;"/>
     </g>
     <g id="line2d_26">
      <g>
       <use style="stroke:#000000;stroke-width:0.8;" x="57.6" xlink:href="#ma9b8941336" y="62.834299"/>
      </g>
     </g>
     <g id="text_14">
      <!-- 800 -->
      <g transform="translate(31.5125 66.633518)scale(0.1 -0.1)">
       <defs>
        <path d="M 31.78125 34.625 
Q 24.75 34.625 20.71875 30.859375 
Q 16.703125 27.09375 16.703125 20.515625 
Q 16.703125 13.921875 20.71875 10.15625 
Q 24.75 6.390625 31.78125 6.390625 
Q 38.8125 6.390625 42.859375 10.171875 
Q 46.921875 13.96875 46.921875 20.515625 
Q 46.921875 27.09375 42.890625 30.859375 
Q 38.875 34.625 31.78125 34.625 
z
M 21.921875 38.8125 
Q 15.578125 40.375 12.03125 44.71875 
Q 8.5 49.078125 8.5 55.328125 
Q 8.5 64.0625 14.71875 69.140625 
Q 20.953125 74.21875 31.78125 74.21875 
Q 42.671875 74.21875 48.875 69.140625 
Q 55.078125 64.0625 55.078125 55.328125 
Q 55.078125 49.078125 51.53125 44.71875 
Q 48 40.375 41.703125 38.8125 
Q 48.828125 37.15625 52.796875 32.3125 
Q 56.78125 27.484375 56.78125 20.515625 
Q 56.78125 9.90625 50.3125 4.234375 
Q 43.84375 -1.421875 31.78125 -1.421875 
Q 19.734375 -1.421875 13.25 4.234375 
Q 6.78125 9.90625 6.78125 20.515625 
Q 6.78125 27.484375 10.78125 32.3125 
Q 14.796875 37.15625 21.921875 38.8125 
z
M 18.3125 54.390625 
Q 18.3125 48.734375 21.84375 45.5625 
Q 25.390625 42.390625 31.78125 42.390625 
Q 38.140625 42.390625 41.71875 45.5625 
Q 45.3125 48.734375 45.3125 54.390625 
Q 45.3125 60.0625 41.71875 63.234375 
Q 38.140625 66.40625 31.78125 66.40625 
Q 25.390625 66.40625 21.84375 63.234375 
Q 18.3125 60.0625 18.3125 54.390625 
z
" id="DejaVuSans-56"/>
       </defs>
       <use xlink:href="#DejaVuSans-56"/>
       <use x="63.623047" xlink:href="#DejaVuSans-48"/>
       <use x="127.246094" xlink:href="#DejaVuSans-48"/>
      </g>
     </g>
    </g>
    <g id="text_15">
     <!-- Fitness -->
     <g transform="translate(17.053125 191.845187)rotate(-90)scale(0.1 -0.1)">
      <defs>
       <path d="M 9.8125 72.90625 
L 51.703125 72.90625 
L 51.703125 64.59375 
L 19.671875 64.59375 
L 19.671875 43.109375 
L 48.578125 43.109375 
L 48.578125 34.8125 
L 19.671875 34.8125 
L 19.671875 0 
L 9.8125 0 
z
" id="DejaVuSans-70"/>
      </defs>
      <use xlink:href="#DejaVuSans-70"/>
      <use x="50.269531" xlink:href="#DejaVuSans-105"/>
      <use x="78.052734" xlink:href="#DejaVuSans-116"/>
      <use x="117.261719" xlink:href="#DejaVuSans-110"/>
      <use x="180.640625" xlink:href="#DejaVuSans-101"/>
      <use x="242.164062" xlink:href="#DejaVuSans-115"/>
      <use x="294.263672" xlink:href="#DejaVuSans-115"/>
     </g>
    </g>
   </g>
   <g id="line2d_27">
    <path clip-path="url(#p2e8038e057)" d="M 73.832727 206.030776 
L 75.147118 204.880932 
L 76.461509 204.488613 
L 77.7759 205.139699 
L 79.090291 203.531499 
L 80.404682 205.296497 
L 81.719073 198.642558 
L 83.033463 204.766961 
L 84.347854 205.410673 
L 86.976636 205.613151 
L 88.291027 205.330154 
L 89.605418 205.725386 
L 90.919809 204.022861 
L 92.234199 205.166308 
L 93.54859 203.904934 
L 94.862981 204.945418 
L 96.177372 205.237551 
L 97.491763 204.65473 
L 98.806154 204.678165 
L 100.120545 204.574038 
L 101.434936 205.464454 
L 102.749326 204.991487 
L 104.063717 205.185619 
L 105.378108 205.555512 
L 106.692499 204.208999 
L 108.00689 205.805662 
L 109.321281 204.501936 
L 110.635672 204.212056 
L 111.950063 202.903704 
L 113.264453 202.876768 
L 114.578844 203.140323 
L 115.893235 204.46575 
L 117.207626 204.644089 
L 118.522017 204.452807 
L 119.836408 205.5112 
L 121.150799 206.029812 
L 122.46519 204.424934 
L 123.77958 202.453822 
L 125.093971 205.022436 
L 126.408362 199.253608 
L 127.722753 204.526209 
L 129.037144 205.507718 
L 130.351535 203.748362 
L 131.665926 203.419877 
L 132.980317 201.34845 
L 134.294707 202.793209 
L 135.609098 200.358113 
L 136.923489 201.942122 
L 138.23788 202.677488 
L 139.552271 202.486577 
L 140.866662 199.927241 
L 142.181053 202.468002 
L 143.495444 203.896281 
L 144.809834 205.032447 
L 146.124225 202.94025 
L 147.438616 203.808424 
L 148.753007 205.010947 
L 150.067398 204.444968 
L 151.381789 200.974241 
L 152.69618 202.841107 
L 154.01057 203.6385 
L 155.324961 202.577435 
L 156.639352 205.411609 
L 157.953743 202.867442 
L 159.268134 205.452561 
L 160.582525 201.756673 
L 161.896916 202.837531 
L 163.211307 203.12663 
L 164.525697 204.510807 
L 165.840088 203.823454 
L 167.154479 202.642617 
L 168.46887 203.589914 
L 169.783261 204.850319 
L 171.097652 202.366768 
L 172.412043 203.804224 
L 173.726434 205.483482 
L 175.040824 204.002584 
L 176.355215 203.299581 
L 177.669606 204.991858 
L 178.983997 205.714435 
L 180.298388 204.387871 
L 181.612779 201.207424 
L 182.92717 202.041081 
L 184.241561 205.603911 
L 185.555951 204.307371 
L 188.184733 205.044126 
L 189.499124 200.547543 
L 190.813515 204.606592 
L 192.127906 202.243689 
L 193.442297 202.834595 
L 196.071078 205.56119 
L 197.385469 203.481524 
L 198.69986 204.037336 
L 200.014251 204.909101 
L 201.328642 204.644929 
L 202.643033 203.97622 
L 203.957424 201.819706 
L 205.271815 201.351595 
L 206.586205 204.716264 
L 207.900596 205.126827 
L 209.214987 204.486132 
L 210.529378 203.311171 
L 211.843769 204.623534 
L 213.15816 203.092019 
L 214.472551 205.165751 
L 215.786941 205.436313 
L 217.101332 204.884827 
L 218.415723 205.294917 
L 219.730114 205.108385 
L 221.044505 205.324459 
L 222.358896 204.306108 
L 223.673287 204.705564 
L 224.987678 204.324646 
L 226.302068 203.482703 
L 228.93085 206.334551 
L 230.245241 203.402272 
L 231.559632 203.26801 
L 232.874023 204.562089 
L 234.188414 203.801309 
L 235.502805 205.772471 
L 236.817195 205.018547 
L 238.131586 203.616305 
L 239.445977 203.796585 
L 240.760368 205.554585 
L 242.074759 204.661816 
L 243.38915 203.492263 
L 244.703541 204.548976 
L 246.017932 203.453491 
L 247.332322 203.379676 
L 248.646713 201.762371 
L 249.961104 202.969514 
L 251.275495 203.597767 
L 252.589886 202.240987 
L 253.904277 201.961565 
L 255.218668 201.815161 
L 256.533059 202.886529 
L 257.847449 203.814385 
L 259.16184 202.9459 
L 260.476231 202.214129 
L 261.790622 200.907467 
L 263.105013 202.361892 
L 264.419404 203.431072 
L 265.733795 202.032119 
L 267.048185 203.146003 
L 268.362576 202.811012 
L 269.676967 204.070902 
L 270.991358 200.582444 
L 272.305749 204.497408 
L 273.62014 203.502342 
L 276.248922 205.133775 
L 277.563312 205.98817 
L 278.877703 205.353913 
L 280.192094 204.96289 
L 281.506485 202.247428 
L 282.820876 202.913806 
L 284.135267 174.528 
L 285.449658 203.423889 
L 286.764049 205.164553 
L 288.078439 202.712948 
L 289.39283 205.320222 
L 290.707221 204.425782 
L 292.021612 205.127141 
L 293.336003 202.681068 
L 294.650394 205.035597 
L 295.964785 202.916917 
L 297.279176 204.318918 
L 298.593566 202.859001 
L 299.907957 202.571511 
L 301.222348 199.635848 
L 302.536739 203.127657 
L 303.85113 202.229943 
L 305.165521 202.557103 
L 306.479912 203.773565 
L 307.794303 202.722118 
L 309.108693 199.087261 
L 310.423084 202.304218 
L 311.737475 204.282081 
L 313.051866 204.04011 
L 315.680648 200.303821 
L 316.995039 201.800449 
L 318.30943 204.400528 
L 319.62382 198.405911 
L 320.938211 203.732967 
L 322.252602 204.81475 
L 323.566993 202.713267 
L 324.881384 204.175055 
L 326.195775 202.43271 
L 327.510166 201.051812 
L 328.824556 204.076009 
L 330.138947 205.113849 
L 331.453338 204.728893 
L 332.767729 205.347727 
L 334.08212 203.897256 
L 335.396511 204.027403 
L 336.710902 203.151088 
L 339.339683 203.667656 
L 340.654074 205.49098 
L 341.968465 200.717567 
L 343.282856 203.051914 
L 344.597247 202.486777 
L 345.911638 198.547641 
L 347.226029 202.353237 
L 348.54042 204.412419 
L 349.85481 204.206262 
L 351.169201 204.89303 
L 352.483592 205.272649 
L 353.797983 202.377117 
L 355.112374 204.046722 
L 356.426765 203.434381 
L 357.741156 203.663117 
L 359.055547 202.848792 
L 360.369937 203.586081 
L 361.684328 204.543165 
L 362.998719 204.323511 
L 364.31311 204.267034 
L 365.627501 202.663252 
L 366.941892 197.010823 
L 368.256283 202.403485 
L 369.570674 200.346152 
L 370.885064 202.400384 
L 372.199455 201.973965 
L 373.513846 201.209888 
L 374.828237 201.285432 
L 376.142628 204.418972 
L 377.457019 201.757977 
L 378.77141 200.101222 
L 380.085801 197.726557 
L 381.400191 195.102628 
L 382.714582 197.633094 
L 384.028973 202.060603 
L 385.343364 202.521198 
L 386.657755 201.793625 
L 387.972146 203.647368 
L 389.286537 203.46819 
L 390.600927 202.942259 
L 391.915318 203.944149 
L 393.229709 201.831999 
L 394.5441 204.428517 
L 395.858491 204.397455 
L 397.172882 204.027559 
L 398.487273 202.26222 
L 398.487273 202.26222 
" style="fill:none;stroke:#0000ff;stroke-linecap:square;stroke-width:1.5;"/>
   </g>
   <g id="line2d_28">
    <path clip-path="url(#p2e8038e057)" d="M 73.832727 208.67274 
L 75.147118 210.151919 
L 76.461509 214.751425 
L 77.7759 211.929955 
L 79.090291 215.406878 
L 80.404682 211.882967 
L 81.719073 241.580189 
L 83.033463 212.415428 
L 84.347854 210.840709 
L 85.662245 209.691842 
L 86.976636 209.517111 
L 88.291027 210.18451 
L 89.605418 208.373117 
L 90.919809 213.629635 
L 92.234199 209.586018 
L 93.54859 216.571003 
L 94.862981 209.632877 
L 96.177372 210.702284 
L 97.491763 211.452217 
L 98.806154 210.907522 
L 100.120545 213.659588 
L 101.434936 209.03209 
L 102.749326 209.909173 
L 104.063717 212.048504 
L 105.378108 209.887166 
L 106.692499 215.216342 
L 108.00689 208.165434 
L 110.635672 211.018385 
L 111.950063 217.576029 
L 113.264453 213.980823 
L 114.578844 213.50673 
L 115.893235 208.066879 
L 117.207626 208.516918 
L 118.522017 210.120731 
L 119.836408 208.167505 
L 121.150799 208.257765 
L 122.46519 212.220384 
L 123.77958 221.592671 
L 125.093971 208.256524 
L 126.408362 226.640892 
L 127.722753 208.84268 
L 129.037144 208.65913 
L 130.351535 210.833238 
L 131.665926 210.478926 
L 132.980317 214.247637 
L 134.294707 211.159969 
L 135.609098 213.880295 
L 136.923489 211.775984 
L 138.23788 213.058618 
L 139.552271 210.684612 
L 140.866662 213.1134 
L 142.181053 212.576432 
L 143.495444 209.531924 
L 144.809834 209.055734 
L 146.124225 210.484333 
L 147.438616 209.791604 
L 148.753007 210.169147 
L 150.067398 209.098506 
L 151.381789 217.505348 
L 152.69618 214.151621 
L 154.01057 212.537232 
L 155.324961 211.545794 
L 156.639352 210.886301 
L 157.953743 210.62259 
L 159.268134 209.38928 
L 160.582525 212.340088 
L 161.896916 211.161127 
L 163.211307 212.087512 
L 164.525697 210.972682 
L 165.840088 210.541027 
L 167.154479 211.185594 
L 168.46887 209.294385 
L 169.783261 209.912825 
L 171.097652 211.395408 
L 172.412043 214.780331 
L 173.726434 208.616512 
L 175.040824 212.256085 
L 176.355215 212.007627 
L 177.669606 208.947047 
L 178.983997 208.347106 
L 180.298388 211.977775 
L 181.612779 214.02903 
L 182.92717 210.355993 
L 184.241561 209.193339 
L 185.555951 209.55464 
L 186.870342 208.496889 
L 188.184733 208.269375 
L 189.499124 218.483162 
L 190.813515 209.274949 
L 192.127906 214.174728 
L 193.442297 210.384272 
L 194.756688 211.472542 
L 196.071078 209.299112 
L 197.385469 210.175613 
L 198.69986 211.197483 
L 200.014251 209.703454 
L 201.328642 209.053387 
L 202.643033 210.785521 
L 203.957424 218.250988 
L 205.271815 217.785271 
L 206.586205 209.265937 
L 207.900596 209.06945 
L 209.214987 211.150319 
L 210.529378 217.455135 
L 211.843769 210.454043 
L 213.15816 210.178951 
L 214.472551 208.905799 
L 215.786941 208.772011 
L 217.101332 209.969126 
L 218.415723 209.222461 
L 219.730114 208.810192 
L 221.044505 209.624492 
L 222.358896 209.278759 
L 223.673287 209.228868 
L 224.987678 209.602146 
L 226.302068 211.630049 
L 228.93085 208.356406 
L 230.245241 209.929411 
L 231.559632 209.428494 
L 234.188414 210.434323 
L 235.502805 208.439923 
L 236.817195 208.003329 
L 238.131586 210.730575 
L 239.445977 211.184878 
L 240.760368 207.959874 
L 243.38915 213.785173 
L 244.703541 208.498496 
L 246.017932 211.194239 
L 247.332322 210.744427 
L 248.646713 214.384937 
L 249.961104 208.227012 
L 251.275495 210.467126 
L 252.589886 213.968634 
L 253.904277 216.931715 
L 255.218668 214.242988 
L 256.533059 210.815514 
L 257.847449 210.795687 
L 259.16184 209.02655 
L 260.476231 210.842458 
L 261.790622 213.333075 
L 263.105013 209.760249 
L 264.419404 209.628732 
L 267.048185 210.540285 
L 268.362576 209.355919 
L 269.676967 209.995406 
L 270.991358 214.222111 
L 272.305749 209.359563 
L 273.62014 211.315021 
L 274.934531 208.496997 
L 276.248922 208.607947 
L 277.563312 208.090701 
L 278.877703 208.057149 
L 280.192094 208.156646 
L 281.506485 218.373856 
L 282.820876 212.149962 
L 284.135267 295.488 
L 285.449658 209.959355 
L 286.764049 208.065748 
L 288.078439 210.335746 
L 289.39283 209.337344 
L 290.707221 208.961644 
L 292.021612 209.380498 
L 293.336003 214.763677 
L 294.650394 210.920018 
L 295.964785 212.184725 
L 297.279176 208.730037 
L 298.593566 209.880688 
L 299.907957 212.784488 
L 301.222348 217.221666 
L 302.536739 210.111051 
L 303.85113 210.052738 
L 305.165521 210.569869 
L 306.479912 208.995693 
L 307.794303 211.32716 
L 309.108693 221.259511 
L 310.423084 210.213579 
L 311.737475 209.535366 
L 313.051866 209.426813 
L 314.366257 215.593531 
L 315.680648 212.366601 
L 316.995039 218.326237 
L 318.30943 210.832235 
L 319.62382 228.408058 
L 320.938211 211.189558 
L 322.252602 209.587138 
L 323.566993 211.458135 
L 324.881384 209.88146 
L 326.195775 217.131162 
L 327.510166 216.259416 
L 328.824556 209.908011 
L 330.138947 210.007196 
L 331.453338 208.437761 
L 332.767729 207.604834 
L 334.08212 210.503712 
L 335.396511 209.546919 
L 336.710902 213.171627 
L 338.025293 213.02181 
L 339.339683 214.361007 
L 340.654074 208.122143 
L 341.968465 217.470074 
L 343.282856 209.550746 
L 344.597247 211.230741 
L 345.911638 214.242333 
L 347.226029 216.80779 
L 348.54042 210.340882 
L 349.85481 209.896654 
L 351.169201 209.639587 
L 352.483592 208.621207 
L 353.797983 211.201953 
L 355.112374 210.009753 
L 356.426765 211.651964 
L 357.741156 210.837364 
L 359.055547 216.769622 
L 361.684328 209.010882 
L 362.998719 209.113611 
L 364.31311 211.736555 
L 365.627501 211.229946 
L 366.941892 227.806457 
L 368.256283 210.296256 
L 369.570674 223.823627 
L 370.885064 215.687285 
L 372.199455 213.013662 
L 373.513846 211.709736 
L 374.828237 214.078193 
L 376.142628 210.250476 
L 377.457019 213.424382 
L 378.77141 215.39655 
L 380.085801 215.613623 
L 381.400191 216.213239 
L 382.714582 218.983494 
L 384.028973 209.732998 
L 385.343364 217.423674 
L 386.657755 211.950528 
L 387.972146 208.655107 
L 389.286537 211.090003 
L 390.600927 210.866419 
L 391.915318 209.411888 
L 393.229709 212.922501 
L 394.5441 208.879681 
L 395.858491 208.589688 
L 397.172882 209.448747 
L 398.487273 214.679846 
L 398.487273 214.679846 
" style="fill:none;stroke:#008000;stroke-dasharray:9.6,2.4,1.5,2.4;stroke-dashoffset:0;stroke-width:1.5;"/>
   </g>
   <g id="line2d_29">
    <path clip-path="url(#p2e8038e057)" d="M 73.832727 203.388812 
L 75.147118 199.609946 
L 76.461509 194.225801 
L 77.7759 198.349442 
L 79.090291 191.656121 
L 80.404682 198.710028 
L 81.719073 155.704928 
L 83.033463 197.118493 
L 84.347854 199.980637 
L 85.662245 201.357242 
L 86.976636 201.70919 
L 88.291027 200.475798 
L 89.605418 203.077654 
L 90.919809 194.416087 
L 92.234199 200.746598 
L 93.54859 191.238864 
L 94.862981 200.25796 
L 96.177372 199.772818 
L 97.491763 197.857243 
L 98.806154 198.448809 
L 100.120545 195.488488 
L 101.434936 201.896817 
L 104.063717 198.322733 
L 105.378108 201.223858 
L 106.692499 193.201656 
L 108.00689 203.44589 
L 109.321281 199.481095 
L 110.635672 197.405727 
L 111.950063 188.231379 
L 113.264453 191.772713 
L 114.578844 192.773917 
L 115.893235 200.86462 
L 117.207626 200.771261 
L 118.522017 198.784882 
L 119.836408 202.854894 
L 121.150799 203.801858 
L 122.46519 196.629485 
L 123.77958 183.314972 
L 125.093971 201.788347 
L 126.408362 171.866324 
L 127.722753 200.209738 
L 129.037144 202.356306 
L 130.351535 196.663487 
L 131.665926 196.360827 
L 132.980317 188.449262 
L 134.294707 194.42645 
L 135.609098 186.835932 
L 136.923489 192.108261 
L 138.23788 192.296357 
L 139.552271 194.288543 
L 140.866662 186.741082 
L 143.495444 198.260639 
L 144.809834 201.00916 
L 146.124225 195.396168 
L 147.438616 197.825245 
L 148.753007 199.852746 
L 150.067398 199.79143 
L 151.381789 184.443133 
L 152.69618 191.530592 
L 154.01057 194.739768 
L 155.324961 193.609076 
L 156.639352 199.936917 
L 157.953743 195.112295 
L 159.268134 201.515842 
L 160.582525 191.173257 
L 161.896916 194.513935 
L 163.211307 194.165748 
L 164.525697 198.048931 
L 165.840088 197.10588 
L 167.154479 194.09964 
L 168.46887 197.885443 
L 169.783261 199.787812 
L 171.097652 193.338128 
L 172.412043 192.828116 
L 173.726434 202.350453 
L 175.040824 195.749083 
L 176.355215 194.591535 
L 177.669606 201.036668 
L 178.983997 203.081764 
L 180.298388 196.797968 
L 181.612779 188.385818 
L 182.92717 193.726169 
L 184.241561 202.014484 
L 185.555951 199.060101 
L 186.870342 200.823129 
L 188.184733 201.818876 
L 189.499124 182.611925 
L 190.813515 199.938235 
L 192.127906 190.31265 
L 193.442297 195.284917 
L 194.756688 196.776791 
L 196.071078 201.823267 
L 197.385469 196.787434 
L 198.69986 196.877188 
L 200.014251 200.114748 
L 201.328642 200.23647 
L 202.643033 197.166918 
L 203.957424 185.388424 
L 205.271815 184.917919 
L 206.586205 200.166591 
L 207.900596 201.184204 
L 209.214987 197.821945 
L 210.529378 189.167206 
L 211.843769 198.793025 
L 213.15816 196.005087 
L 214.472551 201.425703 
L 215.786941 202.100615 
L 217.101332 199.800528 
L 218.415723 201.367372 
L 219.730114 201.406578 
L 221.044505 201.024425 
L 222.358896 199.333456 
L 223.673287 200.182261 
L 224.987678 199.047146 
L 226.302068 195.335358 
L 228.93085 204.312695 
L 230.245241 196.875134 
L 231.559632 197.107526 
L 232.874023 199.234828 
L 234.188414 197.168296 
L 235.502805 203.105018 
L 236.817195 202.033765 
L 238.131586 196.502035 
L 239.445977 196.408291 
L 240.760368 203.149297 
L 242.074759 198.518843 
L 243.38915 193.199353 
L 244.703541 200.599455 
L 246.017932 195.712744 
L 247.332322 196.014925 
L 248.646713 189.139805 
L 249.961104 197.712015 
L 251.275495 196.728409 
L 252.589886 190.513339 
L 253.904277 186.991415 
L 255.218668 189.387334 
L 256.533059 194.957544 
L 257.847449 196.833082 
L 259.16184 196.86525 
L 260.476231 193.585799 
L 261.790622 188.48186 
L 263.105013 194.963536 
L 264.419404 197.233411 
L 265.733795 193.923913 
L 267.048185 195.751722 
L 268.362576 196.266106 
L 269.676967 198.146398 
L 270.991358 186.942778 
L 272.305749 199.635253 
L 273.62014 195.689664 
L 274.934531 200.044286 
L 276.248922 201.659604 
L 277.563312 203.885638 
L 278.877703 202.650678 
L 280.192094 201.769135 
L 281.506485 186.121 
L 282.820876 193.67765 
L 284.135267 53.568 
L 285.449658 196.888424 
L 286.764049 202.263359 
L 288.078439 195.09015 
L 289.39283 201.303099 
L 290.707221 199.889919 
L 292.021612 200.873785 
L 293.336003 190.598459 
L 294.650394 199.151176 
L 295.964785 193.649108 
L 297.279176 199.907799 
L 298.593566 195.837313 
L 299.907957 192.358534 
L 301.222348 182.050031 
L 302.536739 196.144262 
L 303.85113 194.407149 
L 305.165521 194.544337 
L 306.479912 198.551437 
L 307.794303 194.117075 
L 309.108693 176.915011 
L 310.423084 194.394857 
L 311.737475 199.028795 
L 313.051866 198.653408 
L 314.366257 188.618729 
L 315.680648 188.24104 
L 316.995039 185.274661 
L 318.30943 197.968821 
L 319.62382 168.403764 
L 320.938211 196.276377 
L 322.252602 200.042363 
L 323.566993 193.9684 
L 324.881384 198.46865 
L 326.195775 187.734257 
L 327.510166 185.844208 
L 328.824556 198.244006 
L 330.138947 200.220503 
L 331.453338 201.020024 
L 332.767729 203.090621 
L 334.08212 197.2908 
L 335.396511 198.507886 
L 336.710902 193.130549 
L 338.025293 193.727511 
L 339.339683 192.974305 
L 340.654074 202.859817 
L 341.968465 183.96506 
L 343.282856 196.553083 
L 344.597247 193.742813 
L 345.911638 182.852949 
L 347.226029 187.898683 
L 348.54042 198.483956 
L 349.85481 198.515869 
L 352.483592 201.924092 
L 353.797983 193.552282 
L 355.112374 198.083691 
L 356.426765 195.216799 
L 357.741156 196.488869 
L 359.055547 188.927961 
L 360.369937 194.117701 
L 361.684328 200.075447 
L 362.998719 199.533412 
L 365.627501 194.096559 
L 366.941892 166.215189 
L 368.256283 194.510715 
L 369.570674 176.868676 
L 370.885064 189.113483 
L 372.199455 190.934268 
L 373.513846 190.710039 
L 374.828237 188.492672 
L 376.142628 198.587468 
L 377.457019 190.091573 
L 381.400191 173.992018 
L 382.714582 176.282693 
L 384.028973 194.388208 
L 385.343364 187.618722 
L 386.657755 191.636722 
L 387.972146 198.639628 
L 389.286537 195.846377 
L 390.600927 195.018099 
L 391.915318 198.476409 
L 393.229709 190.741497 
L 394.5441 199.977353 
L 395.858491 200.205222 
L 397.172882 198.606371 
L 398.487273 189.844594 
L 398.487273 189.844594 
" style="fill:none;stroke:#008000;stroke-dasharray:9.6,2.4,1.5,2.4;stroke-dashoffset:0;stroke-width:1.5;"/>
   </g>
   <g id="patch_3">
    <path d="M 57.6 307.584 
L 57.6 41.472 
" style="fill:none;stroke:#000000;stroke-linecap:square;stroke-linejoin:miter;stroke-width:0.8;"/>
   </g>
   <g id="patch_4">
    <path d="M 414.72 307.584 
L 414.72 41.472 
" style="fill:none;stroke:#000000;stroke-linecap:square;stroke-linejoin:miter;stroke-width:0.8;"/>
   </g>
   <g id="patch_5">
    <path d="M 57.6 307.584 
L 414.72 307.584 
" style="fill:none;stroke:#000000;stroke-linecap:square;stroke-linejoin:miter;stroke-width:0.8;"/>
   </g>
   <g id="patch_6">
    <path d="M 57.6 41.472 
L 414.72 41.472 
" style="fill:none;stroke:#000000;stroke-linecap:square;stroke-linejoin:miter;stroke-width:0.8;"/>
   </g>
   <g id="text_16">
    <!-- Population's average and best fitness -->
    <g transform="translate(123.529687 35.472)scale(0.12 -0.12)">
     <defs>
      <path d="M 19.671875 64.796875 
L 19.671875 37.40625 
L 32.078125 37.40625 
Q 38.96875 37.40625 42.71875 40.96875 
Q 46.484375 44.53125 46.484375 51.125 
Q 46.484375 57.671875 42.71875 61.234375 
Q 38.96875 64.796875 32.078125 64.796875 
z
M 9.8125 72.90625 
L 32.078125 72.90625 
Q 44.34375 72.90625 50.609375 67.359375 
Q 56.890625 61.8125 56.890625 51.125 
Q 56.890625 40.328125 50.609375 34.8125 
Q 44.34375 29.296875 32.078125 29.296875 
L 19.671875 29.296875 
L 19.671875 0 
L 9.8125 0 
z
" id="DejaVuSans-80"/>
      <path d="M 18.109375 8.203125 
L 18.109375 -20.796875 
L 9.078125 -20.796875 
L 9.078125 54.6875 
L 18.109375 54.6875 
L 18.109375 46.390625 
Q 20.953125 51.265625 25.265625 53.625 
Q 29.59375 56 35.59375 56 
Q 45.5625 56 51.78125 48.09375 
Q 58.015625 40.1875 58.015625 27.296875 
Q 58.015625 14.40625 51.78125 6.484375 
Q 45.5625 -1.421875 35.59375 -1.421875 
Q 29.59375 -1.421875 25.265625 0.953125 
Q 20.953125 3.328125 18.109375 8.203125 
z
M 48.6875 27.296875 
Q 48.6875 37.203125 44.609375 42.84375 
Q 40.53125 48.484375 33.40625 48.484375 
Q 26.265625 48.484375 22.1875 42.84375 
Q 18.109375 37.203125 18.109375 27.296875 
Q 18.109375 17.390625 22.1875 11.75 
Q 26.265625 6.109375 33.40625 6.109375 
Q 40.53125 6.109375 44.609375 11.75 
Q 48.6875 17.390625 48.6875 27.296875 
z
" id="DejaVuSans-112"/>
      <path d="M 8.5 21.578125 
L 8.5 54.6875 
L 17.484375 54.6875 
L 17.484375 21.921875 
Q 17.484375 14.15625 20.5 10.265625 
Q 23.53125 6.390625 29.59375 6.390625 
Q 36.859375 6.390625 41.078125 11.03125 
Q 45.3125 15.671875 45.3125 23.6875 
L 45.3125 54.6875 
L 54.296875 54.6875 
L 54.296875 0 
L 45.3125 0 
L 45.3125 8.40625 
Q 42.046875 3.421875 37.71875 1 
Q 33.40625 -1.421875 27.6875 -1.421875 
Q 18.265625 -1.421875 13.375 4.4375 
Q 8.5 10.296875 8.5 21.578125 
z
M 31.109375 56 
z
" id="DejaVuSans-117"/>
      <path d="M 9.421875 75.984375 
L 18.40625 75.984375 
L 18.40625 0 
L 9.421875 0 
z
" id="DejaVuSans-108"/>
      <path d="M 17.921875 72.90625 
L 17.921875 45.796875 
L 9.625 45.796875 
L 9.625 72.90625 
z
" id="DejaVuSans-39"/>
      <path id="DejaVuSans-32"/>
      <path d="M 2.984375 54.6875 
L 12.5 54.6875 
L 29.59375 8.796875 
L 46.6875 54.6875 
L 56.203125 54.6875 
L 35.6875 0 
L 23.484375 0 
z
" id="DejaVuSans-118"/>
      <path d="M 45.40625 27.984375 
Q 45.40625 37.75 41.375 43.109375 
Q 37.359375 48.484375 30.078125 48.484375 
Q 22.859375 48.484375 18.828125 43.109375 
Q 14.796875 37.75 14.796875 27.984375 
Q 14.796875 18.265625 18.828125 12.890625 
Q 22.859375 7.515625 30.078125 7.515625 
Q 37.359375 7.515625 41.375 12.890625 
Q 45.40625 18.265625 45.40625 27.984375 
z
M 54.390625 6.78125 
Q 54.390625 -7.171875 48.1875 -13.984375 
Q 42 -20.796875 29.203125 -20.796875 
Q 24.46875 -20.796875 20.265625 -20.09375 
Q 16.0625 -19.390625 12.109375 -17.921875 
L 12.109375 -9.1875 
Q 16.0625 -11.328125 19.921875 -12.34375 
Q 23.78125 -13.375 27.78125 -13.375 
Q 36.625 -13.375 41.015625 -8.765625 
Q 45.40625 -4.15625 45.40625 5.171875 
L 45.40625 9.625 
Q 42.625 4.78125 38.28125 2.390625 
Q 33.9375 0 27.875 0 
Q 17.828125 0 11.671875 7.65625 
Q 5.515625 15.328125 5.515625 27.984375 
Q 5.515625 40.671875 11.671875 48.328125 
Q 17.828125 56 27.875 56 
Q 33.9375 56 38.28125 53.609375 
Q 42.625 51.21875 45.40625 46.390625 
L 45.40625 54.6875 
L 54.390625 54.6875 
z
" id="DejaVuSans-103"/>
      <path d="M 45.40625 46.390625 
L 45.40625 75.984375 
L 54.390625 75.984375 
L 54.390625 0 
L 45.40625 0 
L 45.40625 8.203125 
Q 42.578125 3.328125 38.25 0.953125 
Q 33.9375 -1.421875 27.875 -1.421875 
Q 17.96875 -1.421875 11.734375 6.484375 
Q 5.515625 14.40625 5.515625 27.296875 
Q 5.515625 40.1875 11.734375 48.09375 
Q 17.96875 56 27.875 56 
Q 33.9375 56 38.25 53.625 
Q 42.578125 51.265625 45.40625 46.390625 
z
M 14.796875 27.296875 
Q 14.796875 17.390625 18.875 11.75 
Q 22.953125 6.109375 30.078125 6.109375 
Q 37.203125 6.109375 41.296875 11.75 
Q 45.40625 17.390625 45.40625 27.296875 
Q 45.40625 37.203125 41.296875 42.84375 
Q 37.203125 48.484375 30.078125 48.484375 
Q 22.953125 48.484375 18.875 42.84375 
Q 14.796875 37.203125 14.796875 27.296875 
z
" id="DejaVuSans-100"/>
      <path d="M 48.6875 27.296875 
Q 48.6875 37.203125 44.609375 42.84375 
Q 40.53125 48.484375 33.40625 48.484375 
Q 26.265625 48.484375 22.1875 42.84375 
Q 18.109375 37.203125 18.109375 27.296875 
Q 18.109375 17.390625 22.1875 11.75 
Q 26.265625 6.109375 33.40625 6.109375 
Q 40.53125 6.109375 44.609375 11.75 
Q 48.6875 17.390625 48.6875 27.296875 
z
M 18.109375 46.390625 
Q 20.953125 51.265625 25.265625 53.625 
Q 29.59375 56 35.59375 56 
Q 45.5625 56 51.78125 48.09375 
Q 58.015625 40.1875 58.015625 27.296875 
Q 58.015625 14.40625 51.78125 6.484375 
Q 45.5625 -1.421875 35.59375 -1.421875 
Q 29.59375 -1.421875 25.265625 0.953125 
Q 20.953125 3.328125 18.109375 8.203125 
L 18.109375 0 
L 9.078125 0 
L 9.078125 75.984375 
L 18.109375 75.984375 
z
" id="DejaVuSans-98"/>
      <path d="M 37.109375 75.984375 
L 37.109375 68.5 
L 28.515625 68.5 
Q 23.6875 68.5 21.796875 66.546875 
Q 19.921875 64.59375 19.921875 59.515625 
L 19.921875 54.6875 
L 34.71875 54.6875 
L 34.71875 47.703125 
L 19.921875 47.703125 
L 19.921875 0 
L 10.890625 0 
L 10.890625 47.703125 
L 2.296875 47.703125 
L 2.296875 54.6875 
L 10.890625 54.6875 
L 10.890625 58.5 
Q 10.890625 67.625 15.140625 71.796875 
Q 19.390625 75.984375 28.609375 75.984375 
z
" id="DejaVuSans-102"/>
     </defs>
     <use xlink:href="#DejaVuSans-80"/>
     <use x="56.677734" xlink:href="#DejaVuSans-111"/>
     <use x="117.859375" xlink:href="#DejaVuSans-112"/>
     <use x="181.335938" xlink:href="#DejaVuSans-117"/>
     <use x="244.714844" xlink:href="#DejaVuSans-108"/>
     <use x="272.498047" xlink:href="#DejaVuSans-97"/>
     <use x="333.777344" xlink:href="#DejaVuSans-116"/>
     <use x="372.986328" xlink:href="#DejaVuSans-105"/>
     <use x="400.769531" xlink:href="#DejaVuSans-111"/>
     <use x="461.951172" xlink:href="#DejaVuSans-110"/>
     <use x="525.330078" xlink:href="#DejaVuSans-39"/>
     <use x="552.820312" xlink:href="#DejaVuSans-115"/>
     <use x="604.919922" xlink:href="#DejaVuSans-32"/>
     <use x="636.707031" xlink:href="#DejaVuSans-97"/>
     <use x="697.986328" xlink:href="#DejaVuSans-118"/>
     <use x="757.166016" xlink:href="#DejaVuSans-101"/>
     <use x="818.689453" xlink:href="#DejaVuSans-114"/>
     <use x="859.802734" xlink:href="#DejaVuSans-97"/>
     <use x="921.082031" xlink:href="#DejaVuSans-103"/>
     <use x="984.558594" xlink:href="#DejaVuSans-101"/>
     <use x="1046.082031" xlink:href="#DejaVuSans-32"/>
     <use x="1077.869141" xlink:href="#DejaVuSans-97"/>
     <use x="1139.148438" xlink:href="#DejaVuSans-110"/>
     <use x="1202.527344" xlink:href="#DejaVuSans-100"/>
     <use x="1266.003906" xlink:href="#DejaVuSans-32"/>
     <use x="1297.791016" xlink:href="#DejaVuSans-98"/>
     <use x="1361.267578" xlink:href="#DejaVuSans-101"/>
     <use x="1422.791016" xlink:href="#DejaVuSans-115"/>
     <use x="1474.890625" xlink:href="#DejaVuSans-116"/>
     <use x="1514.099609" xlink:href="#DejaVuSans-32"/>
     <use x="1545.886719" xlink:href="#DejaVuSans-102"/>
     <use x="1581.091797" xlink:href="#DejaVuSans-105"/>
     <use x="1608.875" xlink:href="#DejaVuSans-116"/>
     <use x="1648.083984" xlink:href="#DejaVuSans-110"/>
     <use x="1711.462891" xlink:href="#DejaVuSans-101"/>
     <use x="1772.986328" xlink:href="#DejaVuSans-115"/>
     <use x="1825.085938" xlink:href="#DejaVuSans-115"/>
    </g>
   </g>
   <g id="legend_1">
    <g id="patch_7">
     <path d="M 64.6 93.506375 
L 208.535938 93.506375 
Q 210.535938 93.506375 210.535938 91.506375 
L 210.535938 48.472 
Q 210.535938 46.472 208.535938 46.472 
L 64.6 46.472 
Q 62.6 46.472 62.6 48.472 
L 62.6 91.506375 
Q 62.6 93.506375 64.6 93.506375 
z
" style="fill:#ffffff;opacity:0.8;stroke:#cccccc;stroke-linejoin:miter;"/>
    </g>
    <g id="line2d_30">
     <path d="M 66.6 54.570438 
L 86.6 54.570438 
" style="fill:none;stroke:#0000ff;stroke-linecap:square;stroke-width:1.5;"/>
    </g>
    <g id="line2d_31"/>
    <g id="text_17">
     <!-- average -->
     <g transform="translate(94.6 58.070438)scale(0.1 -0.1)">
      <use xlink:href="#DejaVuSans-97"/>
      <use x="61.279297" xlink:href="#DejaVuSans-118"/>
      <use x="120.458984" xlink:href="#DejaVuSans-101"/>
      <use x="181.982422" xlink:href="#DejaVuSans-114"/>
      <use x="223.095703" xlink:href="#DejaVuSans-97"/>
      <use x="284.375" xlink:href="#DejaVuSans-103"/>
      <use x="347.851562" xlink:href="#DejaVuSans-101"/>
     </g>
    </g>
    <g id="line2d_32">
     <path d="M 66.6 69.248563 
L 86.6 69.248563 
" style="fill:none;stroke:#008000;stroke-dasharray:9.6,2.4,1.5,2.4;stroke-dashoffset:0;stroke-width:1.5;"/>
    </g>
    <g id="line2d_33"/>
    <g id="text_18">
     <!-- -1 standard deviation -->
     <g transform="translate(94.6 72.748563)scale(0.1 -0.1)">
      <defs>
       <path d="M 4.890625 31.390625 
L 31.203125 31.390625 
L 31.203125 23.390625 
L 4.890625 23.390625 
z
" id="DejaVuSans-45"/>
      </defs>
      <use xlink:href="#DejaVuSans-45"/>
      <use x="36.083984" xlink:href="#DejaVuSans-49"/>
      <use x="99.707031" xlink:href="#DejaVuSans-32"/>
      <use x="131.494141" xlink:href="#DejaVuSans-115"/>
      <use x="183.59375" xlink:href="#DejaVuSans-116"/>
      <use x="222.802734" xlink:href="#DejaVuSans-97"/>
      <use x="284.082031" xlink:href="#DejaVuSans-110"/>
      <use x="347.460938" xlink:href="#DejaVuSans-100"/>
      <use x="410.9375" xlink:href="#DejaVuSans-97"/>
      <use x="472.216797" xlink:href="#DejaVuSans-114"/>
      <use x="511.580078" xlink:href="#DejaVuSans-100"/>
      <use x="575.056641" xlink:href="#DejaVuSans-32"/>
      <use x="606.84375" xlink:href="#DejaVuSans-100"/>
      <use x="670.320312" xlink:href="#DejaVuSans-101"/>
      <use x="731.84375" xlink:href="#DejaVuSans-118"/>
      <use x="791.023438" xlink:href="#DejaVuSans-105"/>
      <use x="818.806641" xlink:href="#DejaVuSans-97"/>
      <use x="880.085938" xlink:href="#DejaVuSans-116"/>
      <use x="919.294922" xlink:href="#DejaVuSans-105"/>
      <use x="947.078125" xlink:href="#DejaVuSans-111"/>
      <use x="1008.259766" xlink:href="#DejaVuSans-110"/>
     </g>
    </g>
    <g id="line2d_34">
     <path d="M 66.6 83.926688 
L 86.6 83.926688 
" style="fill:none;stroke:#008000;stroke-dasharray:9.6,2.4,1.5,2.4;stroke-dashoffset:0;stroke-width:1.5;"/>
    </g>
    <g id="line2d_35"/>
    <g id="text_19">
     <!-- +1 standard deviation -->
     <g transform="translate(94.6 87.426688)scale(0.1 -0.1)">
      <defs>
       <path d="M 46 62.703125 
L 46 35.5 
L 73.1875 35.5 
L 73.1875 27.203125 
L 46 27.203125 
L 46 0 
L 37.796875 0 
L 37.796875 27.203125 
L 10.59375 27.203125 
L 10.59375 35.5 
L 37.796875 35.5 
L 37.796875 62.703125 
z
" id="DejaVuSans-43"/>
      </defs>
      <use xlink:href="#DejaVuSans-43"/>
      <use x="83.789062" xlink:href="#DejaVuSans-49"/>
      <use x="147.412109" xlink:href="#DejaVuSans-32"/>
      <use x="179.199219" xlink:href="#DejaVuSans-115"/>
      <use x="231.298828" xlink:href="#DejaVuSans-116"/>
      <use x="270.507812" xlink:href="#DejaVuSans-97"/>
      <use x="331.787109" xlink:href="#DejaVuSans-110"/>
      <use x="395.166016" xlink:href="#DejaVuSans-100"/>
      <use x="458.642578" xlink:href="#DejaVuSans-97"/>
      <use x="519.921875" xlink:href="#DejaVuSans-114"/>
      <use x="559.285156" xlink:href="#DejaVuSans-100"/>
      <use x="622.761719" xlink:href="#DejaVuSans-32"/>
      <use x="654.548828" xlink:href="#DejaVuSans-100"/>
      <use x="718.025391" xlink:href="#DejaVuSans-101"/>
      <use x="779.548828" xlink:href="#DejaVuSans-118"/>
      <use x="838.728516" xlink:href="#DejaVuSans-105"/>
      <use x="866.511719" xlink:href="#DejaVuSans-97"/>
      <use x="927.791016" xlink:href="#DejaVuSans-116"/>
      <use x="967" xlink:href="#DejaVuSans-105"/>
      <use x="994.783203" xlink:href="#DejaVuSans-111"/>
      <use x="1055.964844" xlink:href="#DejaVuSans-110"/>
     </g>
    </g>
   </g>
  </g>
 </g>
 <defs>
  <clipPath id="p2e8038e057">
   <rect height="266.112" width="357.12" x="57.6" y="41.472"/>
  </clipPath>
 </defs>
</svg>
