<?xml version="1.0" encoding="utf-8" standalone="no"?>
<!DOCTYPE svg PUBLIC "-//W3C//DTD SVG 1.1//EN"
  "http://www.w3.org/Graphics/SVG/1.1/DTD/svg11.dtd">
<!-- Created with matplotlib (https://matplotlib.org/) -->
<svg height="345.6pt" version="1.1" viewBox="0 0 460.8 345.6" width="460.8pt" xmlns="http://www.w3.org/2000/svg" xmlns:xlink="http://www.w3.org/1999/xlink">
 <metadata>
  <rdf:RDF xmlns:cc="http://creativecommons.org/ns#" xmlns:dc="http://purl.org/dc/elements/1.1/" xmlns:rdf="http://www.w3.org/1999/02/22-rdf-syntax-ns#">
   <cc:Work>
    <dc:type rdf:resource="http://purl.org/dc/dcmitype/StillImage"/>
    <dc:date>2022-02-11T00:22:54.888857</dc:date>
    <dc:format>image/svg+xml</dc:format>
    <dc:creator>
     <cc:Agent>
      <dc:title>Matplotlib v3.3.4, https://matplotlib.org/</dc:title>
     </cc:Agent>
    </dc:creator>
   </cc:Work>
  </rdf:RDF>
 </metadata>
 <defs>
  <style type="text/css">*{stroke-linecap:butt;stroke-linejoin:round;}</style>
 </defs>
 <g id="figure_1">
  <g id="patch_1">
   <path d="M 0 345.6 
L 460.8 345.6 
L 460.8 0 
L 0 0 
z
" style="fill:#ffffff;"/>
  </g>
  <g id="axes_1">
   <g id="patch_2">
    <path d="M 57.6 307.584 
L 414.72 307.584 
L 414.72 41.472 
L 57.6 41.472 
z
" style="fill:#ffffff;"/>
   </g>
   <g id="matplotlib.axis_1">
    <g id="xtick_1">
     <g id="line2d_1">
      <path clip-path="url(#pfe60c404c4)" d="M 73.832727 307.584 
L 73.832727 41.472 
" style="fill:none;stroke:#b0b0b0;stroke-linecap:square;stroke-width:0.8;"/>
     </g>
     <g id="line2d_2">
      <defs>
       <path d="M 0 0 
L 0 3.5 
" id="m5451a82295" style="stroke:#000000;stroke-width:0.8;"/>
      </defs>
      <g>
       <use style="stroke:#000000;stroke-width:0.8;" x="73.832727" xlink:href="#m5451a82295" y="307.584"/>
      </g>
     </g>
     <g id="text_1">
      <!-- 0 -->
      <g transform="translate(70.651477 322.182437)scale(0.1 -0.1)">
       <defs>
        <path d="M 31.78125 66.40625 
Q 24.171875 66.40625 20.328125 58.90625 
Q 16.5 51.421875 16.5 36.375 
Q 16.5 21.390625 20.328125 13.890625 
Q 24.171875 6.390625 31.78125 6.390625 
Q 39.453125 6.390625 43.28125 13.890625 
Q 47.125 21.390625 47.125 36.375 
Q 47.125 51.421875 43.28125 58.90625 
Q 39.453125 66.40625 31.78125 66.40625 
z
M 31.78125 74.21875 
Q 44.046875 74.21875 50.515625 64.515625 
Q 56.984375 54.828125 56.984375 36.375 
Q 56.984375 17.96875 50.515625 8.265625 
Q 44.046875 -1.421875 31.78125 -1.421875 
Q 19.53125 -1.421875 13.0625 8.265625 
Q 6.59375 17.96875 6.59375 36.375 
Q 6.59375 54.828125 13.0625 64.515625 
Q 19.53125 74.21875 31.78125 74.21875 
z
" id="DejaVuSans-48"/>
       </defs>
       <use xlink:href="#DejaVuSans-48"/>
      </g>
     </g>
    </g>
    <g id="xtick_2">
     <g id="line2d_3">
      <path clip-path="url(#pfe60c404c4)" d="M 114.824463 307.584 
L 114.824463 41.472 
" style="fill:none;stroke:#b0b0b0;stroke-linecap:square;stroke-width:0.8;"/>
     </g>
     <g id="line2d_4">
      <g>
       <use style="stroke:#000000;stroke-width:0.8;" x="114.824463" xlink:href="#m5451a82295" y="307.584"/>
      </g>
     </g>
     <g id="text_2">
      <!-- 100 -->
      <g transform="translate(105.280713 322.182437)scale(0.1 -0.1)">
       <defs>
        <path d="M 12.40625 8.296875 
L 28.515625 8.296875 
L 28.515625 63.921875 
L 10.984375 60.40625 
L 10.984375 69.390625 
L 28.421875 72.90625 
L 38.28125 72.90625 
L 38.28125 8.296875 
L 54.390625 8.296875 
L 54.390625 0 
L 12.40625 0 
z
" id="DejaVuSans-49"/>
       </defs>
       <use xlink:href="#DejaVuSans-49"/>
       <use x="63.623047" xlink:href="#DejaVuSans-48"/>
       <use x="127.246094" xlink:href="#DejaVuSans-48"/>
      </g>
     </g>
    </g>
    <g id="xtick_3">
     <g id="line2d_5">
      <path clip-path="url(#pfe60c404c4)" d="M 155.816198 307.584 
L 155.816198 41.472 
" style="fill:none;stroke:#b0b0b0;stroke-linecap:square;stroke-width:0.8;"/>
     </g>
     <g id="line2d_6">
      <g>
       <use style="stroke:#000000;stroke-width:0.8;" x="155.816198" xlink:href="#m5451a82295" y="307.584"/>
      </g>
     </g>
     <g id="text_3">
      <!-- 200 -->
      <g transform="translate(146.272448 322.182437)scale(0.1 -0.1)">
       <defs>
        <path d="M 19.1875 8.296875 
L 53.609375 8.296875 
L 53.609375 0 
L 7.328125 0 
L 7.328125 8.296875 
Q 12.9375 14.109375 22.625 23.890625 
Q 32.328125 33.6875 34.8125 36.53125 
Q 39.546875 41.84375 41.421875 45.53125 
Q 43.3125 49.21875 43.3125 52.78125 
Q 43.3125 58.59375 39.234375 62.25 
Q 35.15625 65.921875 28.609375 65.921875 
Q 23.96875 65.921875 18.8125 64.3125 
Q 13.671875 62.703125 7.8125 59.421875 
L 7.8125 69.390625 
Q 13.765625 71.78125 18.9375 73 
Q 24.125 74.21875 28.421875 74.21875 
Q 39.75 74.21875 46.484375 68.546875 
Q 53.21875 62.890625 53.21875 53.421875 
Q 53.21875 48.921875 51.53125 44.890625 
Q 49.859375 40.875 45.40625 35.40625 
Q 44.1875 33.984375 37.640625 27.21875 
Q 31.109375 20.453125 19.1875 8.296875 
z
" id="DejaVuSans-50"/>
       </defs>
       <use xlink:href="#DejaVuSans-50"/>
       <use x="63.623047" xlink:href="#DejaVuSans-48"/>
       <use x="127.246094" xlink:href="#DejaVuSans-48"/>
      </g>
     </g>
    </g>
    <g id="xtick_4">
     <g id="line2d_7">
      <path clip-path="url(#pfe60c404c4)" d="M 196.807934 307.584 
L 196.807934 41.472 
" style="fill:none;stroke:#b0b0b0;stroke-linecap:square;stroke-width:0.8;"/>
     </g>
     <g id="line2d_8">
      <g>
       <use style="stroke:#000000;stroke-width:0.8;" x="196.807934" xlink:href="#m5451a82295" y="307.584"/>
      </g>
     </g>
     <g id="text_4">
      <!-- 300 -->
      <g transform="translate(187.264184 322.182437)scale(0.1 -0.1)">
       <defs>
        <path d="M 40.578125 39.3125 
Q 47.65625 37.796875 51.625 33 
Q 55.609375 28.21875 55.609375 21.1875 
Q 55.609375 10.40625 48.1875 4.484375 
Q 40.765625 -1.421875 27.09375 -1.421875 
Q 22.515625 -1.421875 17.65625 -0.515625 
Q 12.796875 0.390625 7.625 2.203125 
L 7.625 11.71875 
Q 11.71875 9.328125 16.59375 8.109375 
Q 21.484375 6.890625 26.8125 6.890625 
Q 36.078125 6.890625 40.9375 10.546875 
Q 45.796875 14.203125 45.796875 21.1875 
Q 45.796875 27.640625 41.28125 31.265625 
Q 36.765625 34.90625 28.71875 34.90625 
L 20.21875 34.90625 
L 20.21875 43.015625 
L 29.109375 43.015625 
Q 36.375 43.015625 40.234375 45.921875 
Q 44.09375 48.828125 44.09375 54.296875 
Q 44.09375 59.90625 40.109375 62.90625 
Q 36.140625 65.921875 28.71875 65.921875 
Q 24.65625 65.921875 20.015625 65.03125 
Q 15.375 64.15625 9.8125 62.3125 
L 9.8125 71.09375 
Q 15.4375 72.65625 20.34375 73.4375 
Q 25.25 74.21875 29.59375 74.21875 
Q 40.828125 74.21875 47.359375 69.109375 
Q 53.90625 64.015625 53.90625 55.328125 
Q 53.90625 49.265625 50.4375 45.09375 
Q 46.96875 40.921875 40.578125 39.3125 
z
" id="DejaVuSans-51"/>
       </defs>
       <use xlink:href="#DejaVuSans-51"/>
       <use x="63.623047" xlink:href="#DejaVuSans-48"/>
       <use x="127.246094" xlink:href="#DejaVuSans-48"/>
      </g>
     </g>
    </g>
    <g id="xtick_5">
     <g id="line2d_9">
      <path clip-path="url(#pfe60c404c4)" d="M 237.799669 307.584 
L 237.799669 41.472 
" style="fill:none;stroke:#b0b0b0;stroke-linecap:square;stroke-width:0.8;"/>
     </g>
     <g id="line2d_10">
      <g>
       <use style="stroke:#000000;stroke-width:0.8;" x="237.799669" xlink:href="#m5451a82295" y="307.584"/>
      </g>
     </g>
     <g id="text_5">
      <!-- 400 -->
      <g transform="translate(228.255919 322.182437)scale(0.1 -0.1)">
       <defs>
        <path d="M 37.796875 64.3125 
L 12.890625 25.390625 
L 37.796875 25.390625 
z
M 35.203125 72.90625 
L 47.609375 72.90625 
L 47.609375 25.390625 
L 58.015625 25.390625 
L 58.015625 17.1875 
L 47.609375 17.1875 
L 47.609375 0 
L 37.796875 0 
L 37.796875 17.1875 
L 4.890625 17.1875 
L 4.890625 26.703125 
z
" id="DejaVuSans-52"/>
       </defs>
       <use xlink:href="#DejaVuSans-52"/>
       <use x="63.623047" xlink:href="#DejaVuSans-48"/>
       <use x="127.246094" xlink:href="#DejaVuSans-48"/>
      </g>
     </g>
    </g>
    <g id="xtick_6">
     <g id="line2d_11">
      <path clip-path="url(#pfe60c404c4)" d="M 278.791405 307.584 
L 278.791405 41.472 
" style="fill:none;stroke:#b0b0b0;stroke-linecap:square;stroke-width:0.8;"/>
     </g>
     <g id="line2d_12">
      <g>
       <use style="stroke:#000000;stroke-width:0.8;" x="278.791405" xlink:href="#m5451a82295" y="307.584"/>
      </g>
     </g>
     <g id="text_6">
      <!-- 500 -->
      <g transform="translate(269.247655 322.182437)scale(0.1 -0.1)">
       <defs>
        <path d="M 10.796875 72.90625 
L 49.515625 72.90625 
L 49.515625 64.59375 
L 19.828125 64.59375 
L 19.828125 46.734375 
Q 21.96875 47.46875 24.109375 47.828125 
Q 26.265625 48.1875 28.421875 48.1875 
Q 40.625 48.1875 47.75 41.5 
Q 54.890625 34.8125 54.890625 23.390625 
Q 54.890625 11.625 47.5625 5.09375 
Q 40.234375 -1.421875 26.90625 -1.421875 
Q 22.3125 -1.421875 17.546875 -0.640625 
Q 12.796875 0.140625 7.71875 1.703125 
L 7.71875 11.625 
Q 12.109375 9.234375 16.796875 8.0625 
Q 21.484375 6.890625 26.703125 6.890625 
Q 35.15625 6.890625 40.078125 11.328125 
Q 45.015625 15.765625 45.015625 23.390625 
Q 45.015625 31 40.078125 35.4375 
Q 35.15625 39.890625 26.703125 39.890625 
Q 22.75 39.890625 18.8125 39.015625 
Q 14.890625 38.140625 10.796875 36.28125 
z
" id="DejaVuSans-53"/>
       </defs>
       <use xlink:href="#DejaVuSans-53"/>
       <use x="63.623047" xlink:href="#DejaVuSans-48"/>
       <use x="127.246094" xlink:href="#DejaVuSans-48"/>
      </g>
     </g>
    </g>
    <g id="xtick_7">
     <g id="line2d_13">
      <path clip-path="url(#pfe60c404c4)" d="M 319.78314 307.584 
L 319.78314 41.472 
" style="fill:none;stroke:#b0b0b0;stroke-linecap:square;stroke-width:0.8;"/>
     </g>
     <g id="line2d_14">
      <g>
       <use style="stroke:#000000;stroke-width:0.8;" x="319.78314" xlink:href="#m5451a82295" y="307.584"/>
      </g>
     </g>
     <g id="text_7">
      <!-- 600 -->
      <g transform="translate(310.23939 322.182437)scale(0.1 -0.1)">
       <defs>
        <path d="M 33.015625 40.375 
Q 26.375 40.375 22.484375 35.828125 
Q 18.609375 31.296875 18.609375 23.390625 
Q 18.609375 15.53125 22.484375 10.953125 
Q 26.375 6.390625 33.015625 6.390625 
Q 39.65625 6.390625 43.53125 10.953125 
Q 47.40625 15.53125 47.40625 23.390625 
Q 47.40625 31.296875 43.53125 35.828125 
Q 39.65625 40.375 33.015625 40.375 
z
M 52.59375 71.296875 
L 52.59375 62.3125 
Q 48.875 64.0625 45.09375 64.984375 
Q 41.3125 65.921875 37.59375 65.921875 
Q 27.828125 65.921875 22.671875 59.328125 
Q 17.53125 52.734375 16.796875 39.40625 
Q 19.671875 43.65625 24.015625 45.921875 
Q 28.375 48.1875 33.59375 48.1875 
Q 44.578125 48.1875 50.953125 41.515625 
Q 57.328125 34.859375 57.328125 23.390625 
Q 57.328125 12.15625 50.6875 5.359375 
Q 44.046875 -1.421875 33.015625 -1.421875 
Q 20.359375 -1.421875 13.671875 8.265625 
Q 6.984375 17.96875 6.984375 36.375 
Q 6.984375 53.65625 15.1875 63.9375 
Q 23.390625 74.21875 37.203125 74.21875 
Q 40.921875 74.21875 44.703125 73.484375 
Q 48.484375 72.75 52.59375 71.296875 
z
" id="DejaVuSans-54"/>
       </defs>
       <use xlink:href="#DejaVuSans-54"/>
       <use x="63.623047" xlink:href="#DejaVuSans-48"/>
       <use x="127.246094" xlink:href="#DejaVuSans-48"/>
      </g>
     </g>
    </g>
    <g id="xtick_8">
     <g id="line2d_15">
      <path clip-path="url(#pfe60c404c4)" d="M 360.774876 307.584 
L 360.774876 41.472 
" style="fill:none;stroke:#b0b0b0;stroke-linecap:square;stroke-width:0.8;"/>
     </g>
     <g id="line2d_16">
      <g>
       <use style="stroke:#000000;stroke-width:0.8;" x="360.774876" xlink:href="#m5451a82295" y="307.584"/>
      </g>
     </g>
     <g id="text_8">
      <!-- 700 -->
      <g transform="translate(351.231126 322.182437)scale(0.1 -0.1)">
       <defs>
        <path d="M 8.203125 72.90625 
L 55.078125 72.90625 
L 55.078125 68.703125 
L 28.609375 0 
L 18.3125 0 
L 43.21875 64.59375 
L 8.203125 64.59375 
z
" id="DejaVuSans-55"/>
       </defs>
       <use xlink:href="#DejaVuSans-55"/>
       <use x="63.623047" xlink:href="#DejaVuSans-48"/>
       <use x="127.246094" xlink:href="#DejaVuSans-48"/>
      </g>
     </g>
    </g>
    <g id="xtick_9">
     <g id="line2d_17">
      <path clip-path="url(#pfe60c404c4)" d="M 401.766612 307.584 
L 401.766612 41.472 
" style="fill:none;stroke:#b0b0b0;stroke-linecap:square;stroke-width:0.8;"/>
     </g>
     <g id="line2d_18">
      <g>
       <use style="stroke:#000000;stroke-width:0.8;" x="401.766612" xlink:href="#m5451a82295" y="307.584"/>
      </g>
     </g>
     <g id="text_9">
      <!-- 800 -->
      <g transform="translate(392.222862 322.182437)scale(0.1 -0.1)">
       <defs>
        <path d="M 31.78125 34.625 
Q 24.75 34.625 20.71875 30.859375 
Q 16.703125 27.09375 16.703125 20.515625 
Q 16.703125 13.921875 20.71875 10.15625 
Q 24.75 6.390625 31.78125 6.390625 
Q 38.8125 6.390625 42.859375 10.171875 
Q 46.921875 13.96875 46.921875 20.515625 
Q 46.921875 27.09375 42.890625 30.859375 
Q 38.875 34.625 31.78125 34.625 
z
M 21.921875 38.8125 
Q 15.578125 40.375 12.03125 44.71875 
Q 8.5 49.078125 8.5 55.328125 
Q 8.5 64.0625 14.71875 69.140625 
Q 20.953125 74.21875 31.78125 74.21875 
Q 42.671875 74.21875 48.875 69.140625 
Q 55.078125 64.0625 55.078125 55.328125 
Q 55.078125 49.078125 51.53125 44.71875 
Q 48 40.375 41.703125 38.8125 
Q 48.828125 37.15625 52.796875 32.3125 
Q 56.78125 27.484375 56.78125 20.515625 
Q 56.78125 9.90625 50.3125 4.234375 
Q 43.84375 -1.421875 31.78125 -1.421875 
Q 19.734375 -1.421875 13.25 4.234375 
Q 6.78125 9.90625 6.78125 20.515625 
Q 6.78125 27.484375 10.78125 32.3125 
Q 14.796875 37.15625 21.921875 38.8125 
z
M 18.3125 54.390625 
Q 18.3125 48.734375 21.84375 45.5625 
Q 25.390625 42.390625 31.78125 42.390625 
Q 38.140625 42.390625 41.71875 45.5625 
Q 45.3125 48.734375 45.3125 54.390625 
Q 45.3125 60.0625 41.71875 63.234375 
Q 38.140625 66.40625 31.78125 66.40625 
Q 25.390625 66.40625 21.84375 63.234375 
Q 18.3125 60.0625 18.3125 54.390625 
z
" id="DejaVuSans-56"/>
       </defs>
       <use xlink:href="#DejaVuSans-56"/>
       <use x="63.623047" xlink:href="#DejaVuSans-48"/>
       <use x="127.246094" xlink:href="#DejaVuSans-48"/>
      </g>
     </g>
    </g>
    <g id="text_10">
     <!-- Generations -->
     <g transform="translate(205.662344 335.860562)scale(0.1 -0.1)">
      <defs>
       <path d="M 59.515625 10.40625 
L 59.515625 29.984375 
L 43.40625 29.984375 
L 43.40625 38.09375 
L 69.28125 38.09375 
L 69.28125 6.78125 
Q 63.578125 2.734375 56.6875 0.65625 
Q 49.8125 -1.421875 42 -1.421875 
Q 24.90625 -1.421875 15.25 8.5625 
Q 5.609375 18.5625 5.609375 36.375 
Q 5.609375 54.25 15.25 64.234375 
Q 24.90625 74.21875 42 74.21875 
Q 49.125 74.21875 55.546875 72.453125 
Q 61.96875 70.703125 67.390625 67.28125 
L 67.390625 56.78125 
Q 61.921875 61.421875 55.765625 63.765625 
Q 49.609375 66.109375 42.828125 66.109375 
Q 29.4375 66.109375 22.71875 58.640625 
Q 16.015625 51.171875 16.015625 36.375 
Q 16.015625 21.625 22.71875 14.15625 
Q 29.4375 6.6875 42.828125 6.6875 
Q 48.046875 6.6875 52.140625 7.59375 
Q 56.25 8.5 59.515625 10.40625 
z
" id="DejaVuSans-71"/>
       <path d="M 56.203125 29.59375 
L 56.203125 25.203125 
L 14.890625 25.203125 
Q 15.484375 15.921875 20.484375 11.0625 
Q 25.484375 6.203125 34.421875 6.203125 
Q 39.59375 6.203125 44.453125 7.46875 
Q 49.3125 8.734375 54.109375 11.28125 
L 54.109375 2.78125 
Q 49.265625 0.734375 44.1875 -0.34375 
Q 39.109375 -1.421875 33.890625 -1.421875 
Q 20.796875 -1.421875 13.15625 6.1875 
Q 5.515625 13.8125 5.515625 26.8125 
Q 5.515625 40.234375 12.765625 48.109375 
Q 20.015625 56 32.328125 56 
Q 43.359375 56 49.78125 48.890625 
Q 56.203125 41.796875 56.203125 29.59375 
z
M 47.21875 32.234375 
Q 47.125 39.59375 43.09375 43.984375 
Q 39.0625 48.390625 32.421875 48.390625 
Q 24.90625 48.390625 20.390625 44.140625 
Q 15.875 39.890625 15.1875 32.171875 
z
" id="DejaVuSans-101"/>
       <path d="M 54.890625 33.015625 
L 54.890625 0 
L 45.90625 0 
L 45.90625 32.71875 
Q 45.90625 40.484375 42.875 44.328125 
Q 39.84375 48.1875 33.796875 48.1875 
Q 26.515625 48.1875 22.3125 43.546875 
Q 18.109375 38.921875 18.109375 30.90625 
L 18.109375 0 
L 9.078125 0 
L 9.078125 54.6875 
L 18.109375 54.6875 
L 18.109375 46.1875 
Q 21.34375 51.125 25.703125 53.5625 
Q 30.078125 56 35.796875 56 
Q 45.21875 56 50.046875 50.171875 
Q 54.890625 44.34375 54.890625 33.015625 
z
" id="DejaVuSans-110"/>
       <path d="M 41.109375 46.296875 
Q 39.59375 47.171875 37.8125 47.578125 
Q 36.03125 48 33.890625 48 
Q 26.265625 48 22.1875 43.046875 
Q 18.109375 38.09375 18.109375 28.8125 
L 18.109375 0 
L 9.078125 0 
L 9.078125 54.6875 
L 18.109375 54.6875 
L 18.109375 46.1875 
Q 20.953125 51.171875 25.484375 53.578125 
Q 30.03125 56 36.53125 56 
Q 37.453125 56 38.578125 55.875 
Q 39.703125 55.765625 41.0625 55.515625 
z
" id="DejaVuSans-114"/>
       <path d="M 34.28125 27.484375 
Q 23.390625 27.484375 19.1875 25 
Q 14.984375 22.515625 14.984375 16.5 
Q 14.984375 11.71875 18.140625 8.90625 
Q 21.296875 6.109375 26.703125 6.109375 
Q 34.1875 6.109375 38.703125 11.40625 
Q 43.21875 16.703125 43.21875 25.484375 
L 43.21875 27.484375 
z
M 52.203125 31.203125 
L 52.203125 0 
L 43.21875 0 
L 43.21875 8.296875 
Q 40.140625 3.328125 35.546875 0.953125 
Q 30.953125 -1.421875 24.3125 -1.421875 
Q 15.921875 -1.421875 10.953125 3.296875 
Q 6 8.015625 6 15.921875 
Q 6 25.140625 12.171875 29.828125 
Q 18.359375 34.515625 30.609375 34.515625 
L 43.21875 34.515625 
L 43.21875 35.40625 
Q 43.21875 41.609375 39.140625 45 
Q 35.0625 48.390625 27.6875 48.390625 
Q 23 48.390625 18.546875 47.265625 
Q 14.109375 46.140625 10.015625 43.890625 
L 10.015625 52.203125 
Q 14.9375 54.109375 19.578125 55.046875 
Q 24.21875 56 28.609375 56 
Q 40.484375 56 46.34375 49.84375 
Q 52.203125 43.703125 52.203125 31.203125 
z
" id="DejaVuSans-97"/>
       <path d="M 18.3125 70.21875 
L 18.3125 54.6875 
L 36.8125 54.6875 
L 36.8125 47.703125 
L 18.3125 47.703125 
L 18.3125 18.015625 
Q 18.3125 11.328125 20.140625 9.421875 
Q 21.96875 7.515625 27.59375 7.515625 
L 36.8125 7.515625 
L 36.8125 0 
L 27.59375 0 
Q 17.1875 0 13.234375 3.875 
Q 9.28125 7.765625 9.28125 18.015625 
L 9.28125 47.703125 
L 2.6875 47.703125 
L 2.6875 54.6875 
L 9.28125 54.6875 
L 9.28125 70.21875 
z
" id="DejaVuSans-116"/>
       <path d="M 9.421875 54.6875 
L 18.40625 54.6875 
L 18.40625 0 
L 9.421875 0 
z
M 9.421875 75.984375 
L 18.40625 75.984375 
L 18.40625 64.59375 
L 9.421875 64.59375 
z
" id="DejaVuSans-105"/>
       <path d="M 30.609375 48.390625 
Q 23.390625 48.390625 19.1875 42.75 
Q 14.984375 37.109375 14.984375 27.296875 
Q 14.984375 17.484375 19.15625 11.84375 
Q 23.34375 6.203125 30.609375 6.203125 
Q 37.796875 6.203125 41.984375 11.859375 
Q 46.1875 17.53125 46.1875 27.296875 
Q 46.1875 37.015625 41.984375 42.703125 
Q 37.796875 48.390625 30.609375 48.390625 
z
M 30.609375 56 
Q 42.328125 56 49.015625 48.375 
Q 55.71875 40.765625 55.71875 27.296875 
Q 55.71875 13.875 49.015625 6.21875 
Q 42.328125 -1.421875 30.609375 -1.421875 
Q 18.84375 -1.421875 12.171875 6.21875 
Q 5.515625 13.875 5.515625 27.296875 
Q 5.515625 40.765625 12.171875 48.375 
Q 18.84375 56 30.609375 56 
z
" id="DejaVuSans-111"/>
       <path d="M 44.28125 53.078125 
L 44.28125 44.578125 
Q 40.484375 46.53125 36.375 47.5 
Q 32.28125 48.484375 27.875 48.484375 
Q 21.1875 48.484375 17.84375 46.4375 
Q 14.5 44.390625 14.5 40.28125 
Q 14.5 37.15625 16.890625 35.375 
Q 19.28125 33.59375 26.515625 31.984375 
L 29.59375 31.296875 
Q 39.15625 29.25 43.1875 25.515625 
Q 47.21875 21.78125 47.21875 15.09375 
Q 47.21875 7.46875 41.1875 3.015625 
Q 35.15625 -1.421875 24.609375 -1.421875 
Q 20.21875 -1.421875 15.453125 -0.5625 
Q 10.6875 0.296875 5.421875 2 
L 5.421875 11.28125 
Q 10.40625 8.6875 15.234375 7.390625 
Q 20.0625 6.109375 24.8125 6.109375 
Q 31.15625 6.109375 34.5625 8.28125 
Q 37.984375 10.453125 37.984375 14.40625 
Q 37.984375 18.0625 35.515625 20.015625 
Q 33.0625 21.96875 24.703125 23.78125 
L 21.578125 24.515625 
Q 13.234375 26.265625 9.515625 29.90625 
Q 5.8125 33.546875 5.8125 39.890625 
Q 5.8125 47.609375 11.28125 51.796875 
Q 16.75 56 26.8125 56 
Q 31.78125 56 36.171875 55.265625 
Q 40.578125 54.546875 44.28125 53.078125 
z
" id="DejaVuSans-115"/>
      </defs>
      <use xlink:href="#DejaVuSans-71"/>
      <use x="77.490234" xlink:href="#DejaVuSans-101"/>
      <use x="139.013672" xlink:href="#DejaVuSans-110"/>
      <use x="202.392578" xlink:href="#DejaVuSans-101"/>
      <use x="263.916016" xlink:href="#DejaVuSans-114"/>
      <use x="305.029297" xlink:href="#DejaVuSans-97"/>
      <use x="366.308594" xlink:href="#DejaVuSans-116"/>
      <use x="405.517578" xlink:href="#DejaVuSans-105"/>
      <use x="433.300781" xlink:href="#DejaVuSans-111"/>
      <use x="494.482422" xlink:href="#DejaVuSans-110"/>
      <use x="557.861328" xlink:href="#DejaVuSans-115"/>
     </g>
    </g>
   </g>
   <g id="matplotlib.axis_2">
    <g id="ytick_1">
     <g id="line2d_19">
      <path clip-path="url(#pfe60c404c4)" d="M 57.6 279.585152 
L 414.72 279.585152 
" style="fill:none;stroke:#b0b0b0;stroke-linecap:square;stroke-width:0.8;"/>
     </g>
     <g id="line2d_20">
      <defs>
       <path d="M 0 0 
L -3.5 0 
" id="mcda9733b0a" style="stroke:#000000;stroke-width:0.8;"/>
      </defs>
      <g>
       <use style="stroke:#000000;stroke-width:0.8;" x="57.6" xlink:href="#mcda9733b0a" y="279.585152"/>
      </g>
     </g>
     <g id="text_11">
      <!-- 0 -->
      <g transform="translate(44.2375 283.384371)scale(0.1 -0.1)">
       <use xlink:href="#DejaVuSans-48"/>
      </g>
     </g>
    </g>
    <g id="ytick_2">
     <g id="line2d_21">
      <path clip-path="url(#pfe60c404c4)" d="M 57.6 246.311101 
L 414.72 246.311101 
" style="fill:none;stroke:#b0b0b0;stroke-linecap:square;stroke-width:0.8;"/>
     </g>
     <g id="line2d_22">
      <g>
       <use style="stroke:#000000;stroke-width:0.8;" x="57.6" xlink:href="#mcda9733b0a" y="246.311101"/>
      </g>
     </g>
     <g id="text_12">
      <!-- 20 -->
      <g transform="translate(37.875 250.11032)scale(0.1 -0.1)">
       <use xlink:href="#DejaVuSans-50"/>
       <use x="63.623047" xlink:href="#DejaVuSans-48"/>
      </g>
     </g>
    </g>
    <g id="ytick_3">
     <g id="line2d_23">
      <path clip-path="url(#pfe60c404c4)" d="M 57.6 213.03705 
L 414.72 213.03705 
" style="fill:none;stroke:#b0b0b0;stroke-linecap:square;stroke-width:0.8;"/>
     </g>
     <g id="line2d_24">
      <g>
       <use style="stroke:#000000;stroke-width:0.8;" x="57.6" xlink:href="#mcda9733b0a" y="213.03705"/>
      </g>
     </g>
     <g id="text_13">
      <!-- 40 -->
      <g transform="translate(37.875 216.836268)scale(0.1 -0.1)">
       <use xlink:href="#DejaVuSans-52"/>
       <use x="63.623047" xlink:href="#DejaVuSans-48"/>
      </g>
     </g>
    </g>
    <g id="ytick_4">
     <g id="line2d_25">
      <path clip-path="url(#pfe60c404c4)" d="M 57.6 179.762999 
L 414.72 179.762999 
" style="fill:none;stroke:#b0b0b0;stroke-linecap:square;stroke-width:0.8;"/>
     </g>
     <g id="line2d_26">
      <g>
       <use style="stroke:#000000;stroke-width:0.8;" x="57.6" xlink:href="#mcda9733b0a" y="179.762999"/>
      </g>
     </g>
     <g id="text_14">
      <!-- 60 -->
      <g transform="translate(37.875 183.562217)scale(0.1 -0.1)">
       <use xlink:href="#DejaVuSans-54"/>
       <use x="63.623047" xlink:href="#DejaVuSans-48"/>
      </g>
     </g>
    </g>
    <g id="ytick_5">
     <g id="line2d_27">
      <path clip-path="url(#pfe60c404c4)" d="M 57.6 146.488948 
L 414.72 146.488948 
" style="fill:none;stroke:#b0b0b0;stroke-linecap:square;stroke-width:0.8;"/>
     </g>
     <g id="line2d_28">
      <g>
       <use style="stroke:#000000;stroke-width:0.8;" x="57.6" xlink:href="#mcda9733b0a" y="146.488948"/>
      </g>
     </g>
     <g id="text_15">
      <!-- 80 -->
      <g transform="translate(37.875 150.288166)scale(0.1 -0.1)">
       <use xlink:href="#DejaVuSans-56"/>
       <use x="63.623047" xlink:href="#DejaVuSans-48"/>
      </g>
     </g>
    </g>
    <g id="ytick_6">
     <g id="line2d_29">
      <path clip-path="url(#pfe60c404c4)" d="M 57.6 113.214896 
L 414.72 113.214896 
" style="fill:none;stroke:#b0b0b0;stroke-linecap:square;stroke-width:0.8;"/>
     </g>
     <g id="line2d_30">
      <g>
       <use style="stroke:#000000;stroke-width:0.8;" x="57.6" xlink:href="#mcda9733b0a" y="113.214896"/>
      </g>
     </g>
     <g id="text_16">
      <!-- 100 -->
      <g transform="translate(31.5125 117.014115)scale(0.1 -0.1)">
       <use xlink:href="#DejaVuSans-49"/>
       <use x="63.623047" xlink:href="#DejaVuSans-48"/>
       <use x="127.246094" xlink:href="#DejaVuSans-48"/>
      </g>
     </g>
    </g>
    <g id="ytick_7">
     <g id="line2d_31">
      <path clip-path="url(#pfe60c404c4)" d="M 57.6 79.940845 
L 414.72 79.940845 
" style="fill:none;stroke:#b0b0b0;stroke-linecap:square;stroke-width:0.8;"/>
     </g>
     <g id="line2d_32">
      <g>
       <use style="stroke:#000000;stroke-width:0.8;" x="57.6" xlink:href="#mcda9733b0a" y="79.940845"/>
      </g>
     </g>
     <g id="text_17">
      <!-- 120 -->
      <g transform="translate(31.5125 83.740064)scale(0.1 -0.1)">
       <use xlink:href="#DejaVuSans-49"/>
       <use x="63.623047" xlink:href="#DejaVuSans-50"/>
       <use x="127.246094" xlink:href="#DejaVuSans-48"/>
      </g>
     </g>
    </g>
    <g id="ytick_8">
     <g id="line2d_33">
      <path clip-path="url(#pfe60c404c4)" d="M 57.6 46.666794 
L 414.72 46.666794 
" style="fill:none;stroke:#b0b0b0;stroke-linecap:square;stroke-width:0.8;"/>
     </g>
     <g id="line2d_34">
      <g>
       <use style="stroke:#000000;stroke-width:0.8;" x="57.6" xlink:href="#mcda9733b0a" y="46.666794"/>
      </g>
     </g>
     <g id="text_18">
      <!-- 140 -->
      <g transform="translate(31.5125 50.466013)scale(0.1 -0.1)">
       <use xlink:href="#DejaVuSans-49"/>
       <use x="63.623047" xlink:href="#DejaVuSans-52"/>
       <use x="127.246094" xlink:href="#DejaVuSans-48"/>
      </g>
     </g>
    </g>
    <g id="text_19">
     <!-- Fitness -->
     <g transform="translate(25.432812 191.845187)rotate(-90)scale(0.1 -0.1)">
      <defs>
       <path d="M 9.8125 72.90625 
L 51.703125 72.90625 
L 51.703125 64.59375 
L 19.671875 64.59375 
L 19.671875 43.109375 
L 48.578125 43.109375 
L 48.578125 34.8125 
L 19.671875 34.8125 
L 19.671875 0 
L 9.8125 0 
z
" id="DejaVuSans-70"/>
      </defs>
      <use xlink:href="#DejaVuSans-70"/>
      <use x="50.269531" xlink:href="#DejaVuSans-105"/>
      <use x="78.052734" xlink:href="#DejaVuSans-116"/>
      <use x="117.261719" xlink:href="#DejaVuSans-110"/>
      <use x="180.640625" xlink:href="#DejaVuSans-101"/>
      <use x="242.164062" xlink:href="#DejaVuSans-115"/>
      <use x="294.263672" xlink:href="#DejaVuSans-115"/>
     </g>
    </g>
   </g>
   <g id="line2d_35">
    <path clip-path="url(#pfe60c404c4)" d="M 73.832727 295.470966 
L 74.242645 293.337063 
L 74.652562 295.139861 
L 75.062479 294.783422 
L 75.472397 295.104887 
L 75.882314 295.011152 
L 76.702149 293.759444 
L 77.112066 293.417651 
L 77.521983 293.556759 
L 77.931901 294.682622 
L 78.341818 293.363828 
L 78.751736 294.731213 
L 79.161653 293.679037 
L 80.391405 295.230511 
L 80.801322 294.355077 
L 81.21124 293.958651 
L 82.031074 294.06369 
L 82.440992 295.488 
L 82.850909 287.173479 
L 83.260826 294.28002 
L 83.670744 293.702563 
L 84.490579 282.700813 
L 84.900496 287.675378 
L 85.310413 287.764142 
L 85.720331 290.217232 
L 86.130248 294.151037 
L 86.540165 294.526481 
L 86.950083 292.568556 
L 87.769917 293.161231 
L 88.179835 290.509396 
L 88.589752 291.816886 
L 88.999669 286.682769 
L 89.409587 292.825456 
L 89.819504 294.193759 
L 90.229421 291.153991 
L 90.639339 290.886592 
L 91.049256 293.294115 
L 91.459174 292.987365 
L 91.869091 291.997246 
L 92.279008 293.070464 
L 92.688926 291.499676 
L 93.098843 292.457343 
L 93.50876 293.103013 
L 93.918678 292.374925 
L 94.328595 287.907714 
L 94.738512 294.221442 
L 95.558347 289.831352 
L 95.968264 290.523762 
L 96.378182 283.864564 
L 96.788099 284.582077 
L 97.198017 287.035379 
L 97.607934 284.380833 
L 98.017851 282.997617 
L 98.427769 279.249537 
L 98.837686 277.302401 
L 99.247603 285.526224 
L 99.657521 279.450743 
L 100.067438 271.516929 
L 100.477355 284.677233 
L 100.887273 264.41385 
L 101.29719 273.345494 
L 101.707107 287.742919 
L 102.117025 287.939904 
L 102.526942 281.804514 
L 102.93686 273.685644 
L 103.346777 283.592022 
L 104.986446 263.823077 
L 105.396364 269.25852 
L 105.806281 285.039799 
L 106.216198 278.215149 
L 106.626116 278.890329 
L 107.036033 248.555662 
L 107.44595 257.412692 
L 107.855868 240.051206 
L 108.265785 245.064755 
L 108.675702 264.072916 
L 109.08562 268.25068 
L 109.495537 222.464096 
L 109.905455 259.095933 
L 110.315372 258.872007 
L 110.725289 255.922475 
L 111.135207 252.009748 
L 111.545124 268.818161 
L 111.955041 267.393067 
L 112.364959 247.320008 
L 112.774876 264.115056 
L 113.184793 255.192645 
L 114.004628 272.381894 
L 114.414545 271.968485 
L 114.824463 276.682117 
L 115.23438 268.482918 
L 115.644298 282.784934 
L 116.054215 249.097824 
L 116.464132 253.056378 
L 116.87405 243.607715 
L 117.283967 258.226602 
L 117.693884 248.183249 
L 118.103802 255.145039 
L 118.513719 256.608949 
L 118.923636 265.104854 
L 119.333554 267.451387 
L 119.743471 266.120579 
L 120.153388 280.047452 
L 120.563306 268.642199 
L 120.973223 253.865704 
L 121.38314 252.767782 
L 121.793058 241.343335 
L 122.202975 259.772786 
L 122.612893 221.203648 
L 123.02281 258.248411 
L 123.432727 233.333399 
L 123.842645 261.664117 
L 124.252562 264.987863 
L 124.662479 266.580707 
L 125.072397 261.177396 
L 125.482314 277.070209 
L 125.892231 264.119961 
L 126.302149 274.96488 
L 126.712066 259.524631 
L 127.121983 269.216835 
L 127.531901 249.46707 
L 127.941818 257.1741 
L 128.351736 53.580215 
L 128.761653 253.440826 
L 129.17157 262.323022 
L 129.581488 267.26375 
L 130.401322 252.93013 
L 130.81124 242.438435 
L 131.221157 249.153151 
L 131.631074 234.241102 
L 132.040992 258.576829 
L 132.450909 244.154058 
L 132.860826 266.651522 
L 133.270744 237.67308 
L 133.680661 266.594489 
L 134.090579 273.879393 
L 134.500496 264.049472 
L 134.910413 244.120722 
L 135.320331 268.635994 
L 135.730248 260.482917 
L 136.140165 267.868442 
L 136.550083 267.218037 
L 136.96 255.02405 
L 137.369917 281.356358 
L 137.779835 255.248038 
L 138.189752 266.167664 
L 138.599669 251.381947 
L 139.009587 259.972953 
L 139.419504 256.565217 
L 140.239339 275.130608 
L 140.649256 277.983917 
L 141.059174 270.91887 
L 141.469091 261.202022 
L 141.879008 277.038668 
L 142.288926 249.250332 
L 142.698843 266.932543 
L 143.10876 274.464074 
L 143.518678 263.433455 
L 143.928595 272.032809 
L 144.338512 255.261821 
L 144.74843 259.700414 
L 145.158347 238.321187 
L 145.568264 253.726388 
L 145.978182 262.775457 
L 146.388099 231.600675 
L 146.798017 251.483027 
L 147.207934 264.07242 
L 147.617851 222.030114 
L 148.027769 259.464304 
L 148.847603 240.987378 
L 149.257521 262.05383 
L 149.667438 269.775016 
L 150.077355 282.869128 
L 150.487273 266.708094 
L 150.89719 276.090719 
L 151.307107 238.299604 
L 151.717025 262.548838 
L 152.126942 262.660078 
L 152.53686 222.193123 
L 152.946777 227.877276 
L 153.356694 264.975391 
L 153.766612 266.766586 
L 154.176529 254.206007 
L 154.586446 261.404382 
L 154.996364 279.142129 
L 155.406281 264.725668 
L 155.816198 262.777986 
L 156.226116 275.745829 
L 156.636033 268.310957 
L 157.04595 246.828194 
L 157.455868 261.799731 
L 157.865785 248.613559 
L 158.275702 274.319698 
L 158.68562 238.059136 
L 159.095537 273.934477 
L 159.505455 247.309322 
L 159.915372 251.335471 
L 160.325289 246.43528 
L 160.735207 238.168407 
L 161.145124 242.6904 
L 161.555041 267.743212 
L 161.964959 264.684491 
L 162.784793 249.740317 
L 163.194711 252.371365 
L 163.604628 261.157036 
L 164.014545 261.825368 
L 164.424463 260.431665 
L 164.83438 271.125317 
L 165.244298 259.641367 
L 165.654215 251.592939 
L 166.064132 245.842994 
L 166.47405 243.548254 
L 166.883967 267.409072 
L 167.293884 270.638065 
L 167.703802 230.179127 
L 168.113719 243.868312 
L 168.523636 271.284957 
L 168.933554 255.27098 
L 169.343471 260.369456 
L 169.753388 255.968163 
L 170.163306 248.007425 
L 170.573223 276.22203 
L 170.98314 254.867285 
L 171.393058 248.992516 
L 171.802975 219.938129 
L 172.212893 259.845487 
L 172.62281 277.777688 
L 173.032727 269.503114 
L 173.442645 271.527834 
L 173.852562 264.202233 
L 174.262479 276.623283 
L 174.672397 263.418068 
L 175.082314 261.5401 
L 175.492231 255.615008 
L 175.902149 231.455637 
L 176.312066 224.507706 
L 176.721983 238.679223 
L 177.131901 261.393171 
L 177.541818 267.111164 
L 177.951736 261.500821 
L 178.361653 264.373511 
L 179.181488 221.461094 
L 179.591405 258.062111 
L 180.001322 230.101402 
L 180.41124 239.922483 
L 180.821157 259.83349 
L 181.231074 273.361865 
L 181.640992 262.213951 
L 182.050909 270.348462 
L 182.460826 245.698385 
L 182.870744 250.209874 
L 183.280661 256.937257 
L 183.690579 266.169709 
L 184.100496 255.281312 
L 184.510413 253.386275 
L 184.920331 262.881578 
L 185.330248 252.74441 
L 185.740165 232.716642 
L 186.150083 252.290057 
L 186.56 249.423864 
L 186.969917 259.176886 
L 187.379835 247.760719 
L 187.789752 280.088093 
L 188.199669 53.568 
L 188.609587 262.042981 
L 189.019504 272.09849 
L 189.429421 231.125632 
L 189.839339 269.937894 
L 190.249256 253.158432 
L 190.659174 247.513528 
L 191.069091 237.400449 
L 191.479008 254.213701 
L 191.888926 254.635102 
L 192.298843 264.232032 
L 192.70876 240.530833 
L 193.118678 266.917496 
L 193.528595 242.738009 
L 193.938512 270.274126 
L 194.34843 249.574776 
L 194.758347 264.729058 
L 195.168264 259.940276 
L 195.578182 273.183904 
L 195.988099 235.714919 
L 196.398017 233.408918 
L 196.807934 261.895609 
L 197.217851 260.855222 
L 197.627769 251.100294 
L 198.447603 270.795912 
L 198.857521 263.948956 
L 199.267438 266.214538 
L 199.677355 244.334149 
L 200.087273 263.46973 
L 200.49719 274.031075 
L 200.907107 277.40689 
L 201.317025 252.224505 
L 201.726942 267.972854 
L 202.13686 268.472297 
L 202.546777 278.111717 
L 202.956694 273.266492 
L 203.366612 262.108201 
L 203.776529 236.168521 
L 204.596364 273.64518 
L 205.006281 261.412706 
L 205.416198 226.569459 
L 205.826116 266.61403 
L 206.236033 261.636094 
L 206.64595 277.648182 
L 207.055868 248.843758 
L 207.465785 264.013533 
L 207.875702 264.445459 
L 208.28562 266.815558 
L 208.695537 250.800107 
L 209.105455 252.347579 
L 209.515372 230.079678 
L 209.925289 239.261306 
L 210.335207 275.883575 
L 210.745124 278.730751 
L 211.155041 254.789482 
L 211.564959 264.608244 
L 211.974876 271.097826 
L 212.384793 264.257002 
L 212.794711 262.765994 
L 213.204628 261.78847 
L 213.614545 264.478733 
L 214.024463 275.795002 
L 214.43438 264.64445 
L 214.844298 276.069503 
L 215.254215 271.311264 
L 215.664132 275.624342 
L 216.07405 275.542891 
L 216.483967 258.601791 
L 216.893884 274.772202 
L 217.303802 263.725222 
L 217.713719 266.814477 
L 218.123636 278.211527 
L 218.533554 279.880005 
L 218.943471 267.918925 
L 219.353388 269.022368 
L 219.763306 241.841676 
L 220.173223 260.588875 
L 220.58314 259.180867 
L 221.402975 249.713268 
L 221.812893 261.969478 
L 222.22281 145.589316 
L 222.632727 271.056459 
L 223.042645 274.236744 
L 223.452562 247.340153 
L 223.862479 243.041282 
L 224.272397 241.215271 
L 224.682314 252.810444 
L 225.092231 238.619603 
L 225.502149 271.627863 
L 226.321983 255.086514 
L 227.141818 256.912319 
L 227.551736 126.154243 
L 227.961653 279.640076 
L 228.37157 279.681196 
L 228.781488 222.979435 
L 229.191405 256.609595 
L 229.601322 244.186948 
L 230.01124 250.437083 
L 230.421157 268.483145 
L 230.831074 268.735638 
L 231.240992 270.816019 
L 231.650909 266.404426 
L 232.060826 257.364322 
L 232.470744 281.781453 
L 232.880661 260.216144 
L 233.290579 230.522903 
L 233.700496 267.334134 
L 234.110413 240.075876 
L 234.520331 266.703649 
L 234.930248 246.399805 
L 235.340165 255.614418 
L 235.750083 227.973804 
L 236.16 258.226931 
L 236.569917 262.483925 
L 236.979835 268.624206 
L 237.389752 260.328169 
L 237.799669 228.16296 
L 238.209587 241.930243 
L 238.619504 235.97529 
L 239.029421 261.97815 
L 239.439339 265.125245 
L 240.259174 247.079989 
L 240.669091 266.484091 
L 241.079008 248.571896 
L 241.488926 250.207399 
L 241.898843 241.167537 
L 242.30876 265.078566 
L 242.718678 265.500154 
L 243.128595 244.599589 
L 243.538512 265.680211 
L 243.94843 256.712707 
L 244.358347 262.829945 
L 244.768264 272.251078 
L 245.178182 256.507268 
L 245.588099 268.399884 
L 245.998017 215.951909 
L 246.407934 230.472652 
L 246.817851 260.559223 
L 247.227769 241.730822 
L 247.637686 250.68196 
L 248.047603 271.341936 
L 248.457521 260.794229 
L 248.867438 267.323173 
L 249.277355 261.751476 
L 249.687273 271.025497 
L 250.09719 241.02533 
L 250.507107 267.732334 
L 250.917025 273.894631 
L 251.326942 262.959544 
L 251.73686 240.918381 
L 252.146777 266.838551 
L 252.556694 238.978279 
L 252.966612 265.039578 
L 253.376529 277.394773 
L 254.606281 238.902867 
L 255.016198 272.28528 
L 255.426116 217.288273 
L 255.836033 244.880317 
L 256.24595 282.317416 
L 256.655868 258.736456 
L 257.065785 269.071196 
L 257.475702 262.694927 
L 257.88562 245.967915 
L 258.295537 259.215575 
L 258.705455 263.033299 
L 259.115372 250.737194 
L 259.935207 273.981329 
L 260.345124 272.494975 
L 260.755041 272.308744 
L 261.164959 251.435305 
L 261.574876 278.327461 
L 261.984793 243.582043 
L 262.394711 242.155329 
L 263.214545 251.87127 
L 263.624463 274.54311 
L 264.03438 272.700657 
L 264.444298 251.100345 
L 264.854215 272.235847 
L 265.264132 252.631629 
L 265.67405 283.819273 
L 266.083967 274.115526 
L 266.493884 272.995094 
L 266.903802 281.821649 
L 267.313719 250.620997 
L 267.723636 273.153331 
L 268.133554 279.275748 
L 268.543471 258.689312 
L 268.953388 275.22078 
L 269.363306 251.255152 
L 269.773223 249.024292 
L 270.18314 261.368776 
L 270.593058 257.890547 
L 271.002975 276.621026 
L 271.412893 247.28538 
L 271.82281 275.977347 
L 272.232727 259.417283 
L 272.642645 254.92908 
L 273.052562 272.650367 
L 273.462479 282.286059 
L 273.872397 258.22352 
L 274.282314 266.386771 
L 274.692231 263.705575 
L 275.102149 269.589154 
L 275.512066 244.356848 
L 275.921983 250.988959 
L 276.331901 201.19542 
L 276.741818 236.78094 
L 277.151736 243.421967 
L 277.561653 246.676109 
L 277.97157 261.944739 
L 278.381488 220.784504 
L 279.61124 257.866112 
L 280.021157 276.898163 
L 280.431074 260.357553 
L 280.840992 249.241353 
L 281.250909 243.600655 
L 281.660826 265.791804 
L 282.070744 245.952263 
L 282.480661 265.088255 
L 282.890579 257.040293 
L 283.300496 266.4886 
L 283.710413 257.769162 
L 284.120331 271.851789 
L 284.530248 240.19954 
L 284.940165 242.324275 
L 285.350083 228.325922 
L 285.76 241.09317 
L 286.169917 239.515121 
L 286.579835 224.908031 
L 286.989752 223.942256 
L 287.399669 232.828583 
L 287.809587 253.422014 
L 288.219504 246.491008 
L 288.629421 245.71901 
L 289.039339 257.025345 
L 289.449256 258.438188 
L 289.859174 276.177058 
L 290.679008 236.908807 
L 291.088926 258.947771 
L 291.498843 273.03908 
L 292.318678 230.795532 
L 292.728595 254.076158 
L 293.138512 253.000935 
L 293.54843 249.78888 
L 294.368264 269.143453 
L 294.778182 268.278765 
L 295.188099 272.760576 
L 295.598017 272.964295 
L 296.007934 280.702687 
L 296.417851 260.072775 
L 296.827769 249.871424 
L 297.647603 261.209802 
L 298.057521 256.255313 
L 298.467438 256.429422 
L 298.877355 262.284049 
L 299.287273 254.069539 
L 299.69719 257.214083 
L 300.107107 251.934415 
L 300.517025 271.11976 
L 300.926942 269.067478 
L 301.33686 250.157687 
L 301.746777 264.003196 
L 302.156694 270.559449 
L 302.566612 229.452944 
L 302.976529 256.626057 
L 303.386446 249.02413 
L 303.796364 222.012378 
L 304.206281 241.652734 
L 304.616198 223.359376 
L 305.026116 249.638506 
L 305.436033 259.160593 
L 305.84595 247.678503 
L 306.255868 241.501726 
L 306.665785 194.104115 
L 307.075702 245.11845 
L 307.48562 243.57467 
L 307.895537 248.086043 
L 308.305455 267.837375 
L 308.715372 266.040626 
L 309.125289 215.685393 
L 309.535207 254.0723 
L 309.945124 207.393586 
L 310.355041 253.605667 
L 310.764959 268.128889 
L 311.174876 259.088336 
L 311.584793 256.645548 
L 311.994711 248.839054 
L 312.404628 257.238446 
L 313.224463 235.639921 
L 313.63438 263.339052 
L 314.044298 265.111228 
L 314.454215 272.298135 
L 314.864132 244.872462 
L 315.27405 253.251595 
L 315.683967 277.592935 
L 316.093884 269.967964 
L 316.503802 248.559954 
L 316.913719 263.922352 
L 317.323636 252.164117 
L 318.143471 247.121096 
L 318.553388 228.742402 
L 318.963306 249.468288 
L 319.373223 254.687622 
L 319.78314 249.80835 
L 320.193058 278.057262 
L 320.602975 260.491055 
L 321.012893 269.532398 
L 321.42281 246.042018 
L 321.832727 254.977211 
L 322.242645 272.441017 
L 322.652562 242.329387 
L 323.062479 243.378278 
L 323.472397 222.190952 
L 323.882314 236.132034 
L 324.292231 231.975087 
L 324.702149 222.756847 
L 325.112066 248.673558 
L 325.521983 251.133084 
L 325.931901 250.889332 
L 326.341818 245.544516 
L 326.751736 206.76027 
L 327.161653 246.277148 
L 327.57157 249.714444 
L 327.981488 236.952859 
L 328.391405 235.121886 
L 328.801322 232.1708 
L 329.21124 225.494557 
L 329.621157 256.825701 
L 330.031074 257.491182 
L 330.440992 244.181562 
L 330.850909 271.019938 
L 331.260826 258.532353 
L 331.670744 231.598751 
L 332.080661 246.29747 
L 332.490579 230.41638 
L 332.900496 208.758957 
L 333.310413 244.972866 
L 333.720331 222.220688 
L 334.130248 221.486409 
L 334.540165 189.797979 
L 334.950083 249.649535 
L 335.36 255.476577 
L 335.769917 257.698524 
L 336.179835 240.720349 
L 336.589752 239.879627 
L 336.999669 262.56833 
L 337.409587 247.92288 
L 337.819504 254.097229 
L 338.229421 262.955939 
L 338.639339 248.434389 
L 339.049256 262.163059 
L 339.459174 259.481291 
L 339.869091 268.747301 
L 340.279008 232.627996 
L 340.688926 243.024509 
L 341.098843 214.955003 
L 341.50876 204.394712 
L 341.918678 225.148804 
L 342.328595 267.42378 
L 342.738512 266.346602 
L 343.14843 232.283805 
L 343.558347 245.376482 
L 343.968264 228.621933 
L 344.378182 240.630194 
L 344.788099 184.819997 
L 345.198017 199.60923 
L 345.607934 237.366768 
L 346.017851 254.379379 
L 346.427769 236.523035 
L 347.247603 253.731214 
L 347.657521 217.383048 
L 348.067438 244.481028 
L 348.477355 241.614314 
L 348.887273 232.554027 
L 349.29719 257.87932 
L 349.707107 239.627832 
L 350.117025 238.510845 
L 350.526942 241.735761 
L 350.93686 199.907047 
L 351.346777 250.355745 
L 351.756694 214.467834 
L 352.166612 257.562265 
L 352.576529 232.280869 
L 352.986446 191.046465 
L 353.396364 255.098812 
L 353.806281 225.805001 
L 354.626116 239.756113 
L 355.036033 241.502211 
L 355.44595 243.850967 
L 355.855868 236.2352 
L 356.265785 235.882996 
L 356.675702 239.891743 
L 357.08562 251.854672 
L 357.495537 235.316881 
L 357.905455 246.89829 
L 358.315372 251.61464 
L 358.725289 251.781466 
L 359.135207 261.963486 
L 359.545124 252.206495 
L 359.955041 216.200515 
L 360.364959 249.272491 
L 360.774876 265.161609 
L 361.184793 265.094792 
L 361.594711 256.99778 
L 362.004628 252.347796 
L 362.414545 271.416705 
L 363.23438 226.965095 
L 363.644298 278.017277 
L 364.054215 273.493412 
L 364.464132 228.409661 
L 364.87405 226.035176 
L 365.283967 238.73682 
L 365.693884 239.55875 
L 366.103802 271.244335 
L 366.923636 226.047204 
L 367.333554 223.589614 
L 367.743471 206.049499 
L 368.153388 229.91122 
L 368.563306 198.010439 
L 368.973223 260.891348 
L 369.38314 218.844924 
L 369.793058 235.462129 
L 370.202975 243.721037 
L 370.612893 239.030251 
L 371.02281 218.077718 
L 371.432727 236.263642 
L 371.842645 238.550173 
L 372.252562 224.540876 
L 372.662479 199.556932 
L 373.072397 199.201744 
L 373.482314 214.459291 
L 373.892231 186.384535 
L 374.712066 236.921672 
L 375.121983 217.209116 
L 375.941818 245.113235 
L 376.351736 266.154065 
L 376.761653 250.80703 
L 377.17157 228.998755 
L 377.581488 240.040863 
L 377.991405 256.842405 
L 378.401322 243.588338 
L 378.81124 244.011188 
L 379.221157 239.656291 
L 379.631074 236.76718 
L 380.450909 262.459057 
L 380.860826 249.842225 
L 381.680661 255.510783 
L 382.090579 253.563003 
L 382.500496 260.167373 
L 382.910413 212.394136 
L 383.730248 269.279684 
L 384.140165 249.261699 
L 384.550083 251.64174 
L 384.96 252.067512 
L 385.369917 263.622031 
L 385.779835 265.942791 
L 386.189752 247.974803 
L 386.599669 255.261821 
L 387.009587 244.549533 
L 387.419504 213.930316 
L 387.829421 244.547576 
L 388.239339 243.302256 
L 388.649256 230.805393 
L 389.059174 256.856455 
L 389.469091 258.78887 
L 389.879008 239.201872 
L 390.288926 256.369573 
L 390.698843 242.623839 
L 391.10876 263.010139 
L 391.518678 261.251802 
L 391.928595 264.074116 
L 392.338512 253.088071 
L 392.74843 249.244926 
L 393.158347 266.475176 
L 393.568264 256.075848 
L 393.978182 267.158488 
L 394.388099 231.507643 
L 394.798017 231.60397 
L 395.207934 228.667999 
L 395.617851 198.363193 
L 396.027769 220.252009 
L 396.437686 254.56437 
L 396.847603 240.055579 
L 397.257521 248.398884 
L 397.667438 236.36216 
L 398.077355 244.056131 
L 398.487273 232.695902 
L 398.487273 232.695902 
" style="fill:none;stroke:#0000ff;stroke-linecap:square;stroke-width:1.5;"/>
   </g>
   <g id="patch_3">
    <path d="M 57.6 307.584 
L 57.6 41.472 
" style="fill:none;stroke:#000000;stroke-linecap:square;stroke-linejoin:miter;stroke-width:0.8;"/>
   </g>
   <g id="patch_4">
    <path d="M 414.72 307.584 
L 414.72 41.472 
" style="fill:none;stroke:#000000;stroke-linecap:square;stroke-linejoin:miter;stroke-width:0.8;"/>
   </g>
   <g id="patch_5">
    <path d="M 57.6 307.584 
L 414.72 307.584 
" style="fill:none;stroke:#000000;stroke-linecap:square;stroke-linejoin:miter;stroke-width:0.8;"/>
   </g>
   <g id="patch_6">
    <path d="M 57.6 41.472 
L 414.72 41.472 
" style="fill:none;stroke:#000000;stroke-linecap:square;stroke-linejoin:miter;stroke-width:0.8;"/>
   </g>
   <g id="text_20">
    <!-- Population's average and best fitness -->
    <g transform="translate(123.529687 35.472)scale(0.12 -0.12)">
     <defs>
      <path d="M 19.671875 64.796875 
L 19.671875 37.40625 
L 32.078125 37.40625 
Q 38.96875 37.40625 42.71875 40.96875 
Q 46.484375 44.53125 46.484375 51.125 
Q 46.484375 57.671875 42.71875 61.234375 
Q 38.96875 64.796875 32.078125 64.796875 
z
M 9.8125 72.90625 
L 32.078125 72.90625 
Q 44.34375 72.90625 50.609375 67.359375 
Q 56.890625 61.8125 56.890625 51.125 
Q 56.890625 40.328125 50.609375 34.8125 
Q 44.34375 29.296875 32.078125 29.296875 
L 19.671875 29.296875 
L 19.671875 0 
L 9.8125 0 
z
" id="DejaVuSans-80"/>
      <path d="M 18.109375 8.203125 
L 18.109375 -20.796875 
L 9.078125 -20.796875 
L 9.078125 54.6875 
L 18.109375 54.6875 
L 18.109375 46.390625 
Q 20.953125 51.265625 25.265625 53.625 
Q 29.59375 56 35.59375 56 
Q 45.5625 56 51.78125 48.09375 
Q 58.015625 40.1875 58.015625 27.296875 
Q 58.015625 14.40625 51.78125 6.484375 
Q 45.5625 -1.421875 35.59375 -1.421875 
Q 29.59375 -1.421875 25.265625 0.953125 
Q 20.953125 3.328125 18.109375 8.203125 
z
M 48.6875 27.296875 
Q 48.6875 37.203125 44.609375 42.84375 
Q 40.53125 48.484375 33.40625 48.484375 
Q 26.265625 48.484375 22.1875 42.84375 
Q 18.109375 37.203125 18.109375 27.296875 
Q 18.109375 17.390625 22.1875 11.75 
Q 26.265625 6.109375 33.40625 6.109375 
Q 40.53125 6.109375 44.609375 11.75 
Q 48.6875 17.390625 48.6875 27.296875 
z
" id="DejaVuSans-112"/>
      <path d="M 8.5 21.578125 
L 8.5 54.6875 
L 17.484375 54.6875 
L 17.484375 21.921875 
Q 17.484375 14.15625 20.5 10.265625 
Q 23.53125 6.390625 29.59375 6.390625 
Q 36.859375 6.390625 41.078125 11.03125 
Q 45.3125 15.671875 45.3125 23.6875 
L 45.3125 54.6875 
L 54.296875 54.6875 
L 54.296875 0 
L 45.3125 0 
L 45.3125 8.40625 
Q 42.046875 3.421875 37.71875 1 
Q 33.40625 -1.421875 27.6875 -1.421875 
Q 18.265625 -1.421875 13.375 4.4375 
Q 8.5 10.296875 8.5 21.578125 
z
M 31.109375 56 
z
" id="DejaVuSans-117"/>
      <path d="M 9.421875 75.984375 
L 18.40625 75.984375 
L 18.40625 0 
L 9.421875 0 
z
" id="DejaVuSans-108"/>
      <path d="M 17.921875 72.90625 
L 17.921875 45.796875 
L 9.625 45.796875 
L 9.625 72.90625 
z
" id="DejaVuSans-39"/>
      <path id="DejaVuSans-32"/>
      <path d="M 2.984375 54.6875 
L 12.5 54.6875 
L 29.59375 8.796875 
L 46.6875 54.6875 
L 56.203125 54.6875 
L 35.6875 0 
L 23.484375 0 
z
" id="DejaVuSans-118"/>
      <path d="M 45.40625 27.984375 
Q 45.40625 37.75 41.375 43.109375 
Q 37.359375 48.484375 30.078125 48.484375 
Q 22.859375 48.484375 18.828125 43.109375 
Q 14.796875 37.75 14.796875 27.984375 
Q 14.796875 18.265625 18.828125 12.890625 
Q 22.859375 7.515625 30.078125 7.515625 
Q 37.359375 7.515625 41.375 12.890625 
Q 45.40625 18.265625 45.40625 27.984375 
z
M 54.390625 6.78125 
Q 54.390625 -7.171875 48.1875 -13.984375 
Q 42 -20.796875 29.203125 -20.796875 
Q 24.46875 -20.796875 20.265625 -20.09375 
Q 16.0625 -19.390625 12.109375 -17.921875 
L 12.109375 -9.1875 
Q 16.0625 -11.328125 19.921875 -12.34375 
Q 23.78125 -13.375 27.78125 -13.375 
Q 36.625 -13.375 41.015625 -8.765625 
Q 45.40625 -4.15625 45.40625 5.171875 
L 45.40625 9.625 
Q 42.625 4.78125 38.28125 2.390625 
Q 33.9375 0 27.875 0 
Q 17.828125 0 11.671875 7.65625 
Q 5.515625 15.328125 5.515625 27.984375 
Q 5.515625 40.671875 11.671875 48.328125 
Q 17.828125 56 27.875 56 
Q 33.9375 56 38.28125 53.609375 
Q 42.625 51.21875 45.40625 46.390625 
L 45.40625 54.6875 
L 54.390625 54.6875 
z
" id="DejaVuSans-103"/>
      <path d="M 45.40625 46.390625 
L 45.40625 75.984375 
L 54.390625 75.984375 
L 54.390625 0 
L 45.40625 0 
L 45.40625 8.203125 
Q 42.578125 3.328125 38.25 0.953125 
Q 33.9375 -1.421875 27.875 -1.421875 
Q 17.96875 -1.421875 11.734375 6.484375 
Q 5.515625 14.40625 5.515625 27.296875 
Q 5.515625 40.1875 11.734375 48.09375 
Q 17.96875 56 27.875 56 
Q 33.9375 56 38.25 53.625 
Q 42.578125 51.265625 45.40625 46.390625 
z
M 14.796875 27.296875 
Q 14.796875 17.390625 18.875 11.75 
Q 22.953125 6.109375 30.078125 6.109375 
Q 37.203125 6.109375 41.296875 11.75 
Q 45.40625 17.390625 45.40625 27.296875 
Q 45.40625 37.203125 41.296875 42.84375 
Q 37.203125 48.484375 30.078125 48.484375 
Q 22.953125 48.484375 18.875 42.84375 
Q 14.796875 37.203125 14.796875 27.296875 
z
" id="DejaVuSans-100"/>
      <path d="M 48.6875 27.296875 
Q 48.6875 37.203125 44.609375 42.84375 
Q 40.53125 48.484375 33.40625 48.484375 
Q 26.265625 48.484375 22.1875 42.84375 
Q 18.109375 37.203125 18.109375 27.296875 
Q 18.109375 17.390625 22.1875 11.75 
Q 26.265625 6.109375 33.40625 6.109375 
Q 40.53125 6.109375 44.609375 11.75 
Q 48.6875 17.390625 48.6875 27.296875 
z
M 18.109375 46.390625 
Q 20.953125 51.265625 25.265625 53.625 
Q 29.59375 56 35.59375 56 
Q 45.5625 56 51.78125 48.09375 
Q 58.015625 40.1875 58.015625 27.296875 
Q 58.015625 14.40625 51.78125 6.484375 
Q 45.5625 -1.421875 35.59375 -1.421875 
Q 29.59375 -1.421875 25.265625 0.953125 
Q 20.953125 3.328125 18.109375 8.203125 
L 18.109375 0 
L 9.078125 0 
L 9.078125 75.984375 
L 18.109375 75.984375 
z
" id="DejaVuSans-98"/>
      <path d="M 37.109375 75.984375 
L 37.109375 68.5 
L 28.515625 68.5 
Q 23.6875 68.5 21.796875 66.546875 
Q 19.921875 64.59375 19.921875 59.515625 
L 19.921875 54.6875 
L 34.71875 54.6875 
L 34.71875 47.703125 
L 19.921875 47.703125 
L 19.921875 0 
L 10.890625 0 
L 10.890625 47.703125 
L 2.296875 47.703125 
L 2.296875 54.6875 
L 10.890625 54.6875 
L 10.890625 58.5 
Q 10.890625 67.625 15.140625 71.796875 
Q 19.390625 75.984375 28.609375 75.984375 
z
" id="DejaVuSans-102"/>
     </defs>
     <use xlink:href="#DejaVuSans-80"/>
     <use x="56.677734" xlink:href="#DejaVuSans-111"/>
     <use x="117.859375" xlink:href="#DejaVuSans-112"/>
     <use x="181.335938" xlink:href="#DejaVuSans-117"/>
     <use x="244.714844" xlink:href="#DejaVuSans-108"/>
     <use x="272.498047" xlink:href="#DejaVuSans-97"/>
     <use x="333.777344" xlink:href="#DejaVuSans-116"/>
     <use x="372.986328" xlink:href="#DejaVuSans-105"/>
     <use x="400.769531" xlink:href="#DejaVuSans-111"/>
     <use x="461.951172" xlink:href="#DejaVuSans-110"/>
     <use x="525.330078" xlink:href="#DejaVuSans-39"/>
     <use x="552.820312" xlink:href="#DejaVuSans-115"/>
     <use x="604.919922" xlink:href="#DejaVuSans-32"/>
     <use x="636.707031" xlink:href="#DejaVuSans-97"/>
     <use x="697.986328" xlink:href="#DejaVuSans-118"/>
     <use x="757.166016" xlink:href="#DejaVuSans-101"/>
     <use x="818.689453" xlink:href="#DejaVuSans-114"/>
     <use x="859.802734" xlink:href="#DejaVuSans-97"/>
     <use x="921.082031" xlink:href="#DejaVuSans-103"/>
     <use x="984.558594" xlink:href="#DejaVuSans-101"/>
     <use x="1046.082031" xlink:href="#DejaVuSans-32"/>
     <use x="1077.869141" xlink:href="#DejaVuSans-97"/>
     <use x="1139.148438" xlink:href="#DejaVuSans-110"/>
     <use x="1202.527344" xlink:href="#DejaVuSans-100"/>
     <use x="1266.003906" xlink:href="#DejaVuSans-32"/>
     <use x="1297.791016" xlink:href="#DejaVuSans-98"/>
     <use x="1361.267578" xlink:href="#DejaVuSans-101"/>
     <use x="1422.791016" xlink:href="#DejaVuSans-115"/>
     <use x="1474.890625" xlink:href="#DejaVuSans-116"/>
     <use x="1514.099609" xlink:href="#DejaVuSans-32"/>
     <use x="1545.886719" xlink:href="#DejaVuSans-102"/>
     <use x="1581.091797" xlink:href="#DejaVuSans-105"/>
     <use x="1608.875" xlink:href="#DejaVuSans-116"/>
     <use x="1648.083984" xlink:href="#DejaVuSans-110"/>
     <use x="1711.462891" xlink:href="#DejaVuSans-101"/>
     <use x="1772.986328" xlink:href="#DejaVuSans-115"/>
     <use x="1825.085938" xlink:href="#DejaVuSans-115"/>
    </g>
   </g>
   <g id="legend_1">
    <g id="patch_7">
     <path d="M 334.779375 64.150125 
L 407.72 64.150125 
Q 409.72 64.150125 409.72 62.150125 
L 409.72 48.472 
Q 409.72 46.472 407.72 46.472 
L 334.779375 46.472 
Q 332.779375 46.472 332.779375 48.472 
L 332.779375 62.150125 
Q 332.779375 64.150125 334.779375 64.150125 
z
" style="fill:#ffffff;opacity:0.8;stroke:#cccccc;stroke-linejoin:miter;"/>
    </g>
    <g id="line2d_36">
     <path d="M 336.779375 54.570438 
L 356.779375 54.570438 
" style="fill:none;stroke:#0000ff;stroke-linecap:square;stroke-width:1.5;"/>
    </g>
    <g id="line2d_37"/>
    <g id="text_21">
     <!-- average -->
     <g transform="translate(364.779375 58.070438)scale(0.1 -0.1)">
      <use xlink:href="#DejaVuSans-97"/>
      <use x="61.279297" xlink:href="#DejaVuSans-118"/>
      <use x="120.458984" xlink:href="#DejaVuSans-101"/>
      <use x="181.982422" xlink:href="#DejaVuSans-114"/>
      <use x="223.095703" xlink:href="#DejaVuSans-97"/>
      <use x="284.375" xlink:href="#DejaVuSans-103"/>
      <use x="347.851562" xlink:href="#DejaVuSans-101"/>
     </g>
    </g>
   </g>
  </g>
 </g>
 <defs>
  <clipPath id="pfe60c404c4">
   <rect height="266.112" width="357.12" x="57.6" y="41.472"/>
  </clipPath>
 </defs>
</svg>
